<svg width="135" height="135" xmlns="http://www.w3.org/2000/svg"><g fill-rule="nonzero" fill="none"><path d="M119.437 132.983c-1.15.82-2.63.905-3.858 1.492a4.37 4.37 0 0 1-1.584-.16c-.852.657-2.476.722-3.343.672-.99-.164-1.728-1.089-2.015-2.049.094-.541.099-1.223-.535-1.446-.272-1.064.95-1.338.46-2.437v.045c.61-2.267 1.65-5.499 2.283-7.875.124-.085.362-.16.401-.378l-.495-.423c-.94-1.75-1.644-3.56-2.803-5.34-.93.184-.445 1.283-.99 1.755-1.198-.89.649-1.814.07-3.042-1.234-1.343-2.214-2.864-3.63-3.789-1.08.378.173 1.616-.99 1.755-.496 2.854-2.05 6.518-1.51 9.322-.08.11-.298.125-.496.08 0 .065 0 .134.03.204-.748 1.124.173 2.292.074 3.525l.842 2.227-.104.522c-.283.995.574 1.432.079 2.357l.57 2.59c-.273.294-.57 0-.763-.134a8.66 8.66 0 0 1-1.728 2.193l-4.422-.443c-2.58.751-5.586-.67-8.052.333l.094-.551c-.99-.279-2.337-.174-2.916-.726-1.422-.244-2.417.944-3.853.81.436-.602 1.025-.73 1.337-1.243.213.035.545.095.688-.11l-.069-.238-7.348-.497a3.547 3.547 0 0 1-1.04.164l.074-.443c2.743-2.237 6.388-1.158 9.532-2.43l-.07-.24a17.438 17.438 0 0 0-6.436.816l.04-.219a27 27 0 0 1 8.328-1.283c-.604-.437-1.644-.283-1.98-.795 1.827-.134 3.738.527 5.615.74-.431-.755-1.748-.994-1.818-1.894l.496-.144 2.97 1.865c.387-.955.055-2.486-.252-3.341a9.292 9.292 0 0 0-.337-1.99l-.252.18c-.431-1.427.07-3.043-.104-4.654-.15-.7-.375-1.381-.669-2.033-.46.706-.54 1.83-.99 2.43-.193-1.49.43-3.206.218-4.598-.411-1.541-.203-3.426-1.605-4.475l-.534 1.154c-.342-.627-.085-1.492-.189-2.183l-3.387-4.221c.288.733.636 1.442 1.04 2.118l-.114.661c-1.545-1.491-2.119-3.42-2.911-5.365-.381-.402-.273-1.064-.797-1.267-1.189.363-1.273-1.119-1.872-1.562-.084-1.491-1.813-1.894-2.412-3.017-.609.914.758 1.491.59 2.485-.654-.109-.179-.934-.887-.72-.272-1.064-.138-2.486-1.154-3.133-.371.16-.44.602-.495.93-.233-.607-.044-1.705-.242-2.53-.961-1.636-1.441-3.411-2.19-5.012-.494.368.451 1.327-.445 1.282-.198.532-.495 1.044-1.243.691-.525-1.56-.936-3.097-1.584-4.564.034-.223-.144-.497-.218-.72-.679.67.228 1.963-.867 1.77.495-1.04-.95-2.313.416-3.093-.416-.865-.376-1.76-.792-2.625-.768.547.173 1.616-.302 2.436l-.218-.035a7.917 7.917 0 0 1-.134-3.187c-.56-1.342-.495-3.137-1.659-4.137-.262.866-.321 1.87-.886 2.561-.193-1.492 1.198-3.073.272-4.246.203-.532-.158-1.049-.302-1.521-.564 0-.331.621-.698.785l-2.783 1.78c-1.678-.065-3.664-.293-5.07.711a4.342 4.342 0 0 1-2.58.323c-.64.26-1.303.457-1.98.587-1.982-.224-3.997-.343-6.072-.701-2.768-.93-5.481-1.492-7.814-3.038-2.585-1.352-4.56-4.29-6.704-6.24-.203-.149-.679 0-.728-.353l-1.015-1.302c-1.16-1.78-1.347-3.978-1.927-5.872-.416-.86-1.297-.333-2.02-.691-.109-.691-.946-1.064-1.436-1.492-1.02.045-1.897-.104-2.684.552-1.406-.353-2.54 1.034-3.813-.09.59-1.49 2.164-2.112 3.249-3.171l-.04-.463a16.771 16.771 0 0 0-6.933 3.779c-.252.184-.623.348-.802.09-.178-.935 1.228-1.259 1.065-2.303 1.243-.69 2.58-1.253 3.644-2.197-1.98-.234-3.466 1.89-5.57 1.645a8.07 8.07 0 0 0-1.605.17l-.876-.145c.752-.437 1.881-.467 2.743-.885.787-.66 1.718-.835 2.392-1.491-1.238-.662-2.664.447-4.085.204-2.19-.378-4.764-.498-6.324-1.88A.802.802 0 0 1 2 50.46l.386-.274c3.724.765 7.586.491 11.167-.79-.53-.2-1.204-.204-1.714-.497 1.921 0 4.165.034 5.942-.995l-1.04-.522c2.684.124 5.66-.83 8.389.318.91-.07.851.94 1.639.96l.406-1.06c.668.682.337 1.99.99 2.88a19.872 19.872 0 0 1 2.526 5.633l-.496.363c.288 1.635.317 3.45 1.57 4.683.258-.184-.54-1.452.495-.934.956 1.605.99 4.216 2.476 5.628.1-.323-.148-.701-.341-1.074.04-.895-.248-1.85.143-2.8.213.722.391 1.651.753 2.163l.495 1.104c1.411 1.601 3.154 3.257 5.269 4.067.703 1.144 2.094 1.606 3.421 1.72a.608.608 0 0 1-.188.438c1.124.094 3.095.865 3.778.293.55.095 1.258.557 1.793.08l-2.66-1.586c1.96.435 3.966.632 5.973.586-.877-.253-1.753-.497-2.16-1.173 2.204.264 4.63 1.243 6.334-.159-.41-1.541.877-.621 1.486-1.422a2.276 2.276 0 0 1-.04-.447c-.34.1-.686.182-1.035.243-.347.05-1.025.05-1.188-.313l.168-.313c1.278-.234 2.719-.095 3.709-1.283-.495-1.104.41-2.416-.683-3.281-.273-.393.133-.776-.377-1.084l-1.149.134c-.351.736.174 1.616-.376 2.198-.495-.532-.302-1.527-.901-1.964l.243-.751c-.634-.9-.758-2.168-.877-3.43a10.052 10.052 0 0 1-1.926-1.91c-.6.234.688 1.924-.59 1.492.174-1.666-.495-3.133-1.015-4.58-.723-1.029-.118-2.62-.059-3.629-1.208 1.149-1.213 2.486-1.367 4.057l-.351.055c-.342-1.298.341-2.65.544-3.858l-.183-.259c-.55.582-.629 1.7-1.376 2.138-.496.935-1.323 1.81-1.402 2.923-.079.438.233 1.283-.376 1.522-.347-.622.213-1.885-.718-2.382-.495-1.67.218-3.918.703-5.42 0-2.033 1.292-3.619 1.847-5.558-.396-.293-.183.423-.42.498-2.506 1.491-4.012 4.4-5.448 6.866-.04.218.03.452-.114.656l-.252-.497c-.347.05-.401.383-.55.582.164.362 0 .566-.04.9l-.128.084c-.05-1.024.297-1.755.233-2.67.752-1.795.03-3.48 1.168-4.887.852-1.66 2.53-2.959 2.417-4.898-.421-.184-.916.751-1.154.14-1.406.323-2.199 1.655-3.402 2.128-1.045.835-2.58 1.929-3.13 3.187-.153.198-.46.04-.55-.09.422-.84 1.516-1.427 2.05-2.372-.059-1.83 3.26-3.48 4.24-4.802l-.09-.13-.386.274c.703-2.138 2.59-3.978 4.313-5.47-.782-.695-.57.697-1.337.563-3.595.626-6.274 3.783-8.913 6.04l-.144.2c.64-1.13 1.833-2.168 3.06-3.431a28.843 28.843 0 0 1 13.836-5.872c.148-.88-.941-.388-1.382-.468-.837.309-1.624-.387-2.476-.084-1.639.393-3.357.552-4.768 1.551l-1.02.055c3.199-1.596 6.521-2.61 10.205-2.426l.387-.274c-1.114-.76-2.694-.69-4.214-1.064-1.82-.02-3.64.082-5.447.303 2.05-1.456 4.952-1.402 7.294-2.485 1.896.094 3.719-.04 5.58.278.931-.855.134-2.128.763-3.147L61 19.142c-.347-.627-1.238-.666-1.347-1.363.604-.233 1.485 1.159 2.005.125.624-1.024-.495-1.561-.847-2.297.585-.125.99.736 1.605.497 1.683-1.293-1.124-1.989-.203-3.43.708.462 1.703 2.56 2.679.8-.392-1.65-1.446-3.41-.817-5.116.346 1.302.99 2.66 1.134 3.928.777.696 1.445-.542 2.193-.995-.465-1.894.421-4.475.921-6.06-.099 1.909-1.074 3.659-.04 5.533l1.52-1.283c-.173-1.615.803-3.37 1.462-4.609-.184 1.1-.798 2.69-.327 3.903L75.95 7.15c1.377-2.138 1.446-5.176 3.134-7.15l.184.259c-.496.82-1.525 1.66-1.035 2.759-.555 1.263-.96 2.322-.857 3.694a4.858 4.858 0 0 1 1.788.085C80.892 4.604 82.07 1.64 84.665.278c-.99.498-1.624 1.641-2.416 2.297L80.134 6.4c.857.258 2.025 0 3.08.417 1.426-1.113 2.66-2.366 4.23-2.983-.991 1.184-2.363 1.99-3.467 3.028 1.02.627 2.367.632 3.407 1.149 2.248-1.308 4.456-2.983 6.893-3.446-.917.746-2.229 1.198-3.343 1.795-.807.77-1.847.93-2.436 1.73.837.373 1.639.96 2.62 1.129.787-.656 2.138-.646 3.055-1.397.638.224 1.366-.105 1.896.1.09.81-.772.546-1.282.914-.327-.055-.877-.15-.931.179l.277.388c3 .927 5.927 2.074 8.76 3.43l-.258.18-4.154-1.393c-.055.333-.144.88-.402 1.06.322.735 1.204.208 1.694.63a19.34 19.34 0 0 1 3.793 3.481c.748.244 1.644.283 2.134.711-.188.418-.733.328-1.099.497l1.847 3.098c1.456.7 2.892 1.491 4.333 2.327l-.164.313c-1.02.05-1.871-.89-2.807-.711l.05 1.024 2.827 3.878-.203.532c1.292.994 2.07 2.392 3.466 3.316l-.163.309c-.917.07-1.6-1.179-2.476-.761a4.562 4.562 0 0 1-.827-.497c.064.86 0 1.929.307 2.232.084 1.492 1.614 1.74 2.213 2.859.065 1.6 1.575 2.65 3.07 3.132-.04.219.689.567.179.935-.788 0-1.15-1.218-2.204-.945.723 1.03.59 2.486.99 3.56-.277 1.646.565 3.262 1.714 4.475l.837 1.049c1.748 3.142 5.387 4.29 7.298 7.095 1.402.805 2.58 2.227 3.893 3.192 1.242 0 1.307 1.58 1.634 2.317.104.696.668 1.357.317 2.088-.877-.144-.6-1.795-1.436-2.163-.99 1.188-1.58 2.665-3.135 3.192-1.263.8-3.01.497-4.278 1.298-.6-.443-.748.437-1.095.497l.139 1.83 3.546 2.312-.06.328c-1.149.144-2.035-1.253-3.02-.746l3.664 8.885-.055.328c-1.183-.995-1.356-2.605-2.357-4.018-.163-.372-.396-.994-.703-1.143.53 2.804 1.377 5.777 1.456 8.616.847 2.292 1.347 4.639 2.54 6.881.178.259-.074.438-.208.532a14.898 14.898 0 0 1-1.807-3.251 1.531 1.531 0 0 0-.604.233c.196 2.171.515 4.33.955 6.464a9.957 9.957 0 0 1 2.04 3.858l-.257.179c-.758-.81-.99-1.989-1.901-2.7-.377 2.874.336 5.932.53 8.796l-.134.094c-.342-.626-.188-1.492-.624-2.257-.792 1.337-.183 3.018-.53 4.43-1.05 1.491.149 3.077 0 4.634 0 .785.282 1.635-.198 2.456l-.178-.259a8.983 8.983 0 0 0-.421-3.48c-.238.074-.57 0-.733.328.44 2.675-.555 5.215-.911 7.98-1.298 1.024-.669 2.6-.802 4.047.38 1.079-.63 2.377.698 3.172-.04.219-.258.179-.382.273-.53-.203-.435-.75-.599-1.118-.807.765-.703 2.138-1.124 3.311-.168.313-.99.617-.495.93 1.114.08 2.154-.76 3.194-.92l3.184-2.163c.144 1.159-1.337 1.243-1.703 2.083 3.228-.467 6.412-1.948 9.859-1.695-2.229.497-4.952.617-7.27 1.686l.184.258c2.475.542 5.372.806 7.393 2.178-.57.69-1.486-.497-2.154.08 1.148.536 2.807.71 4.06 1.267l-.495.249c-2.352-.065-5.031-1.542-7.081-.085.688.577 2.753.363 2.64 1.7-.912.065-2.056-.472-3.026-.745-1.857-.318-6.066.9-7.527 1.546l-.074-.02z" fill="#231F20"/><path d="M66.906 50c0 .11.05.22.09.34a.46.46 0 0 0-.09-.34zM88.096 3c-.296-.195.176-.497.3-.592L89.996 1c.086.953-1.372 1.32-1.9 2zM72.225 2.88L72.01 3c-.058-.62.158-1.653.991-2 .003.677-.269 1.337-.775 1.88z" fill="#231F20"/><path d="M92 9.022c-.08.44-.41 1.07-.78.55l-.18-.26c.05-.22.52-.37.96-.29z" fill="#FFF"/><path d="M65 6.78c-.08.304-.52.256-.7.077L64.53 5c.63.228.4 1.146.47 1.78zM61.78 13c-.59-.37-.4-1.114-.5-1.584l.33-.416c.07.624.72 1.61.17 2z" fill="#231F20"/><path d="M82.877 19.559L83 21c-1.516-1.072-3.503-1.209-5-2.411.893-1.498 2.483-.925 3.695-1.589.922.573.27 1.991 1.182 2.559z" fill="#FDB945"/><path d="M60 14.844c-.45.448-.763-.187-1-.431.11-.896.936-.139 1 .431z" fill="#231F20"/><path d="M83 21.71c0 .742-.442 1.305-.132 1.99-.352 1.425-1.034 2.897-2.599 3.26-1.212.22-2.472-.521-3.577-.931-.253-.997-1.132-2.1-.418-3.14-.376-1.546.395-2.897 1.41-3.889 1.65 1.034 3.99 1.113 5.316 2.71z" fill="#FFF"/><path d="M68 19.122c-1.277 1.06-3.377 1.73-4.786 2.878L63 21.959c.614-1.06.824-3.012 2.222-3.465.848-1.123 2.12-.077 2.778.628z" fill="#FDB945"/><path d="M79.813 22.45c.35.944.204 1.979-.397 2.817-.711.772-1.281.81-2.24.667-1.796-.904-1.04-2.668-.892-4.146.355-.212.685-.456.984-.727.564.71.267 1.538.217 2.536.066.159.21.282.392.334.181.051.38.026.537-.07.44-.81-.149-2.15.972-2.861.984.033.359 1.07.427 1.45z" fill="#231F20"/><path d="M69 24.237c-.278.385-.038.86-.443 1.324.363.384-.142.84-.194 1.148-.787.19-.424 1.225-1.292 1.291L63.3 25.628c-.26-1.016-.65-2.487.34-3.284L68.222 20c.65 1.191.471 2.87.778 4.237z" fill="#FFF"/><path d="M67.532 26.661c-.426.557-1.406.362-1.895-.11-.965-1.074-.629-2.52-.312-3.856.232-.072.307-.556.584-.139.396 1.113-.555 2.17.702 2.782.916-.84-.064-2.543 1.07-3.338.553 1.507.31 3.11-.15 4.661zM45 28.109c-.451.64-1.354 1.332-2 .528.587-.787 1.503-.684 2-.528z" fill="#231F20"/><path d="M52 30.44c.23-.62.507-.33 1-.44-.333.13-.694.5-1 .44z" fill="#FFF"/><path d="M55 45c.417-1.222 1.112-2.265 2-3-.928.58-1.221 1.961-2 3z" fill="#231F20"/><path d="M54 49.058c-.26.159-.15.775-.41.942-.43-.07-.42-1.276.41-.942zM69.994 53.7c-.52.37-.36-.52-.11-.7-.04.21.15.48.11.7z" fill="#FFF"/><path d="M88 57.594c-.204.521-.6.429-.996.328-.066-.58.726-1.563.996-.328zM117 63.47l.674-.47.326.55zM85 59c-.754-.559-.977-1.316-.59-2l.59 2zM64.78 55l.22.025-.27.975-.22-.019z" fill="#231F20"/><path d="M57 56c-.395-.64-.441-1.343-.13-2l.13 2z" fill="#FFF"/><path fill="#231F20" d="M58.52 55.48l-.14-.48.62.33zM20 49.155c-.45.922-1.914.155-2.78.845l-.22-.052c1.052-.354 1.958-1.322 3-.793zM105 69c.11-1.896 2.416-2.891 4-4-1.359 1.342-3.364 2.05-4 4zM20 49l1 .19-1-.19zM1 49.73c-.142.442-.467.249-.705.072L0 49.38c.18-.905.755.052 1 .35z"/><path d="M18 54l-.48.15L18 54zM16 55l-.48.15L16 55zM15 55.51l.82-.51.18.03z" fill="#FFF"/><path d="M67.47 80c-.65-.664.49-1.287.53-2l-.53 2zM84 85l-.49 1 .49-1zM83.78 86l.22.05-.07.44-.22-.04zM96 88.298c-.05.417-.463.313-.625.702-.138 0-.42-.114-.37-.531.1-.258.274-.43.47-.463.195-.034.39.075.525.292zM95.77 90l.23.03-.12.66-.22-.03z" fill="#231F20"/><path d="M124 96c-.44-.043-.88-.826-.14-1l.14 1z" fill="#FFF"/><path d="M98.14 93c-.162-.7.143-1.41.86-2-.45.69.21 1.488-.86 2zM92 90c-1.523 2.61-2.43 5.592-2.64 8.677-.121.092-.173.434-.36.286-.017-3.283 1.047-6.464 3-8.963z" fill="#231F20"/><path d="M94.773 94.611c-.356.153-.718.306-.688.732.883.037.141 1.074.283 1.518-.274.273-.4.986-.903.695L92 99c.337-2.472 2.055-4.63 2.93-7 .131.872.078 1.76-.157 2.611zM122.677 98.89c-.21 0-.32-.74.15-.89-.07.45.52 1-.15.89z" fill="#FFF"/><path d="M79.355 93c-.601 0-.266-.671-.225-.966.173-.423.482-.967.848-1.034.136.812-.387 1.154-.623 2z" fill="#231F20"/><path d="M123.983 100c-.84-.224-.24-.727-.18-1 .17.322.23.663.18 1z" fill="#FFF"/><path d="M97 98l-.79 2 .79-2zM118.964 106l-.964-2c.741.422 1.124 1.216.964 2zM88 103a9.193 9.193 0 0 1 2-4c-.232 1.458-1.675 2.567-2 4zM108.71 109.873c-.81 0-.184.827-.71 1.127l.782-5c.703 1.17-.562 2.468-.071 3.873zM117.988 109.308c-.393.946.168 2.038-.033 3.095-.106.589.134 1.03-.077 1.597l-.317-.049c-.153-1.534.048-3.206-.561-4.617.005-.588.71-.27.988-.026zM89.99 104.707c-.255.63-.51-.1-.85-.19l-.14-.25c.224-.41 1.1-.41.99.44zM98.237 108l-.237-.044c.022-.76.365-1.474.94-1.956.254.67-.365 1.434-.703 2zM99.48 109.434c-.926 1.53-.539 3.18-.71 4.85-.407 2.414-1.211 4.535-.461 6.696-.368 1.49-.794 3.364-1.015 4.68-.76-.134-.181-.934-.446-1.321-.637 1.132-.23 2.667-1.064 3.661a9.057 9.057 0 0 0-.25-4.471l-.936-.383c-.226-2.643-.77-5.33-.544-8.003a32.579 32.579 0 0 1 1.382 5.663c.265-2.216.98-4.357.77-6.533.093-1.227-1.363-2.484-.182-3.532.265.382-.132.765-.186 1.093.883 1.396.294 2.876.613 4.282-.662 1.923.363 3.796.372 5.714.564-.696.26-1.54.407-2.415.201-1.212.211-2.563 1.01-3.323-.264-1.064 1.167-2.981-.054-3.627-.377-1.083.711-1.575.643-2.484.294-1.078.353-2.082 1.058-2.981.339.64-.171 1.684-.406 2.434zM89 106.71c-.326.15-1.045-.26-.998-.71.279.31.754.19.998.71z" fill="#231F20"/><path d="M89 106c0 .764-.73 1.404-.955 2-.236-.809.516-1.596.955-2zM102.944 109.083c.242.35-.364.72-.592.917-.812-.197 0-.653.258-.96.023-.101.167.019.334.043zM92.15 110c-.19-.25.15-.89.85-1-.08.46-.6.82-.85 1zM90.356 110l-.295-.033c-.22-.304.2-.728.576-.967.863.181-.054.74-.281 1zM116.924 125.566c.19.26 0 .22-.29.4l-.07-.93c.25-.17.4.31.36.53z" fill="#231F20"/><path d="M96.9 123l.1.69-.1-.69zM121.3 130.14l.48-.14.22.03z" fill="#FFF"/><path d="M98.995 131.412c-.318.864-.25 1.94-1.044 2.57-.3.039-.603.015-.897-.07-.408-2.353 1.65-.16 1.345-2.353.067-.518-.162-1.106.206-1.559.56.106.345.865.39 1.412z" fill="#231F20"/><path d="M99 130.73c0 .096-.083.302-.424.266-.637-.17-.493-.675-.576-.996.459.168.811.425 1 .73z" fill="#231F20"/><path d="M90 129.709c-1.586 1.098-3.53 1.567-5.289 2.291L82 131.546a39.63 39.63 0 0 1 5.698-1.318l.701-.674c.056-.334-.394-.41-.598-.554.787.02 1.846.08 2.199.709zM79 130.645c-.616.7-1.33 0-2 0 .455-1.43 1.33 0 1.912-.25l.088.25zM76 29.405c-.451.971-.799 2.074-1.933 2.486A4.165 4.165 0 0 1 71 31.424c1.001.269 1.788-.427 2.726-.509.462-.453.794-.997.966-1.586-.486-.884-2.24-.68-2.656-1.21 1.366-.269 3.46-.178 3.964 1.286zM122.891 84.534c-.927.669.235 1.535.097 2.466L122 83.724c.227-.913-.186-1.849.219-2.724 1.235.983.32 2.19.672 3.534zM109 113c-1.23-.746-1.846-1.866-2.93-2.703.8-1.145-.892-2.42-.775-3.662L105 106c1.348 2.274 3.077 4.695 4 7zM91.831 121.417c0 .672-.229 1.63.169 2.047-.27.613 0 1.227-.124 1.536-.402-2.317-.647-4.492-.876-6.77l.486-.23c.394 1.085.124 2.371.345 3.417zM86.937 97.025L86 98c.059-2.375 1.039-4.25 2-6-.239 1.535.473 3.82-1.063 5.025zM101.168 69.755c-.705.382-1.508.314-2.168-.183L101.981 68c.147.603-.604 1.028-.813 1.755z" fill="#FDB945"/><path d="M79.182 54.607a1.615 1.615 0 0 1-.38-.433c-.515-.136-1.235-1.044-1.585-1.09-.082.453-.216 1.267-.818 1.398-.797-.141-.247-1.352-1.029-1.482-.34.647-.123 1.398-.37 2.186.267.522.355 1.367 1.132 1.622.884.277 2.057.355 2.767-.47.314.053.664-.844 1.101-1.298a1.454 1.454 0 0 1-.818-.433z" fill="#FBCDC6"/><path d="M121.803 127.355c-1.218-.094-1.63 1.636-2.773 1.106-.709.333-1.436.623-2.18.867l1.1-1.17a2.268 2.268 0 0 0-1.862 1.036c-.169.308.193.818-.387.947-.436-.074-.43-.748-.708-1.14.116-.379.373-.699.718-.892l.307.168c.847-2.335 1.387-4.833 2.021-7.208.149-.872.753-1.78.58-2.716a52.167 52.167 0 0 0-3.567 9.647l-.237.07c-.139-1.151.614-2.261.946-3.555-.926-.496.262-1.532.282-2.31a6.763 6.763 0 0 1 1.273-2.157c.262-1.532 1.486-2.677 1.06-4.214a.664.664 0 0 1 .44-.6c.1-1.224 0-2.478.07-3.708.495 1.666.054 3.62.812 5.101l.352-.05c.555-1.932 1.02-4 .901-5.948-.237.074-.599.238-.673 0l-1.13-4.586c1.328.784.882 2.742 1.68 4.006.495-1.487.103-3.252.148-4.823l-.312-.164c-.134-1.83-.238-3.872-1.179-5.612 2.165 1.84.926 5.116 2.229 7.372-.05-1.026.812-2.112.565-3.287-.179-2.545-.12-5.1.178-7.634l-1.6-5.795.124-.09 1.516 4.318a3.83 3.83 0 0 0 .698-.788l-.659-.11a2.143 2.143 0 0 1 .337-1.982c-.901-2.632-1.436-5.453-2.209-8.155l.495-.144.144-3.47-2.625-5.071c.035-.218.272-.293.495-.144a17.613 17.613 0 0 0 2.105 2.84c.555-1.933-.109-3.965.025-6.082-1.486-1.264-1.486-3.748-2.694-5.31-3.26 1.924-5.865 5.31-6.32 9.286-.882.53.247 1.175-.495 1.606-.218.64.599 1.115.178 1.606-1.15-.53-.317-2.077-1.045-3.108-.238.07-.699.783-.931.178-.733.327-.114 1.334-.466 2.062l-.223-.04c-.099-2.042.679-3.94.45-5.898-1.376 2.131-2.54 4.957-2.55 7.679-.807.089-.762-.809-.782-1.379.208-1.2-.283-2.3-.53-3.47a11.963 11.963 0 0 1 .138-2.796l-.38.278c-.566 1.77-.918 3.6-1.05 5.453a7.318 7.318 0 0 1 .35-4.675c-.054-.342.68-.674.15-.872-2.972 2.087-2.18 6.162-3.601 9.186-.456.04-.496-.422-.778-.694.168-.992-.253-1.845.03-2.816-.149-2.395.297-5.022.693-7.322-.287-.278-.807.084-1.223-.1-1.882-.208-3.849-.545-4.81-2.176l.055-.327c5.19 1.904 8.86-3.103 12.575-5.736l-.198-.148c-1.387.213-2.63.902-3.997.991 1.59-1.423 3.962-1.353 5.904-2.26.768.129 1.317-.451 2.08-.323 1.62.392 3.561-.401 4.794.937.528-.107.927-.54.991-1.075-.792-1.944-1.6-4.462-3.898-4.839.253.496 1.694.63 1.456 1.373-2.095-.922-4.992-1.08-7.033-2.33-.109 0-.054-.347.06-.332l5.086 1.21c-1.679-.739-3.402-2.479-4.616-3.966a78.082 78.082 0 0 0 9.227 4.625l.164.367c-.183.417-.565 0-.822.198l3.873 3.03c-.114.654.95.386 1.223.768-1.065.947-2.972.168-4.15 1.204.109 0 .089.13.069.238a1.227 1.227 0 0 0-1.04.154l.005.342-.99-.278c-.07-.237.495-.361.078-.436-.198-.149-.346.055-.495.144-.013.12.066.23.183.258-1.98-.337-3.759.258-5.695-.303l-.362.164.159.367c-.714.892-1.902.575-2.69 1.23-1.902 1.248-4.26 2.537-4.893 4.912-.54 1.82-1.075 3.644-.936 5.453a35.402 35.402 0 0 0 1.278-3.5c-.263 1.532-1.035 3.43-1.12 5.22 1.214-1.819 1.66-4.461 2.695-6.529l.361-.163-.99 3.098.218.04c.99-1.75 2.293-2.875 3.467-4.462l.361-.163c.1 2.042-1.486 4.025-.832 6.167-.094.55-.223 1.313.144 1.829 1.149-1.487 1.486-3.47 2.209-5.032 0 .11.094.13.183.258.95-.967 1.451-2.568 2.333-3.773-.773 1.9-.496 4.2-.065 6.301l1.937-4.065c.238-.748-1.13-.64-.342-1.299 2.01-1.239 3.938-2.597 6.236-2.875 2.902-1.195 6.612-1.12 8.776-3.906l.045-1.572c-1.714-1.259-3.591-2.146-4.953-3.792a1.22 1.22 0 0 1-.753-1.071c-1.857-.992-3.234-2.756-5.037-4.08-.064-.917-1.124-1.324-1.56-2.072l-.238.07c0-.784-.96-.958-1.303-1.582-.723-2.375-3.353-2.152-4.214-4.328.619-.342.153-.877-.268-1.06-.114 0-.094-.13-.183-.259.966.283 1.322 1.488 2.214 2.187.42-.496 1.04-.159 1.436.138a7.775 7.775 0 0 0-.064-1.59c-.258.187-.496.366-.803.088.223-.64-.564-.664-.723-1.026.238-.07.362.496.62.332.079-1.115-2.08-.357-1.724-1.76-.798-.59-1.768-.862-2.417-1.655 1.644-1.071 2.362 1.308 3.769 1.665-1.045.828.47 1.205.941 1.735.134-.768-.52-1.556-.149-2.394-.47-1.884-2.327-2.88-2.937-4.56-.767-.135-1.074-.992-1.56-1.399-.708-.46-1.565-.719-2.144-1.269.223-.64 1.04-.163 1.436.134.62.337.966.957 1.748.991.075-.436 0-2.325 0-2.885a.406.406 0 0 1 .085 0 1.171 1.171 0 0 1 0-.143c-2.254-2.643-5.384-4.08-8.88-4.68 1.92-.684 3.555.947 5.561 1.06l2.477 1.33c-.758-1.488-1.828-3.134-2.809-4.65.104 0 .456-.036.402-.383l-2.858-1.73c-.035-.46.678 0 .857-.421-.778-1.368-1.65-2.87-3.25-3.376.773-1.22-.703-1.81-1.391-2.38A24.94 24.94 0 0 1 95.27 11.8c.163-.308.456-.714.896-.635.441.08.729.347 1.18.313-1.308-.903-3.24-1.458-5.063-1.983-1.074.381-1.664 1.184-2.862.297-.11-.69-.99-.734-1.62-1.066-.95.293-1.98.992-2.144 1.983-.694.104-.803.759-1.1 1.16l-.381-.401c-.496.143-.575 1.368-1.248.689l-.05-.342 2.417-2.296c-.03-.456-.361-.495-.287-.951-.495-.53-1.422-.243-1.748-.992l-.53.496-1.239 3.966c-.128.089-.4.381-.693.109l-.07-.912-.99 1.07c-.248-1.17 1.035-2.077 1.461-3.242.362-.163.46-.714.738-.991-.495-.53-2.234.496-1.66-.853-.068-.238-.42-.183-.633-.218-.703 1.457-.817 3.47-.99 5.13-.496.145-.734.992-1.333.561-.064-1.591.887-3.232 1.169-4.868-.47-.535-1.278.228-1.748-.302l-.218-.04c-.213 1.879-.709 3.47.124 5.21-.04.213-.204.526-.53.471-.6-.436-.56-1.334-1.14-1.889-.42-.857 0-1.918.03-2.81-.381-.407-.822.198-1.297.341-.738.992-2.214 1.086-3.13 1.83.158 1.04.45 1.983.37 3.108l-.252.183c-.401-.991-1.768-1.536-.99-2.76-.64-.224-1.08.376-1.486.758.292.951 1.342 1.363.956 2.31a.99.99 0 0 1-1.308-.228c-.406-.293-.104-1.368-.857-.932-.55.58-.99 1.185-.554 1.933l-.04.218c-.911.07-.58-1.224-1.54-1.487-.624.342-1.56 1.2-.669 1.914.164.371.99.624.797 1.264a.812.812 0 0 1-1.149-.536l-.455-.644-.788.654c0 .674.99.734.763 1.487-.624.348-1.486-1.046-1.842.243-.332.62.341.63.525.883-.699 1.457-2.308 2.974-1.372 4.724-.094.55-.644 1.126-.025 1.463.203-.53.842-.308 1.297-.342l.055-.333h-.56c.55-.58 1.154-1.487.956-2.31.758-1.794 1.57-3.901 3.799-4.427 1.535-.411 1.575 1.983 3.19 1.11.94 1.067 1.738-.936 2.828-.079-.114.66-.827.199-1.1.496-.46.714-1.699.045-1.575 1.309 1.253 1.904.347 4.57.466 6.504-.238.749-1.1 1.165-1.343 1.914.57 0 .937-.858 1.63-.962 1.426-.431 3.105-1.046 4.487.094.327.177.571.477.679.833.257-.54.55-1.07-.387-1.234-.302-1.522-1.188-2.91-.708-4.408.386-1.626.035-3.47 1.486-4.704-.362-.496-1.436-.808-1.303-1.577l1.858.992c.99-.62 2.12-1.22 3.254-1.244a3.123 3.123 0 0 1 3.467-.427c.104 0 .069.238.05.347-.585.124-1.19-.312-1.769-.193.797 1.264 1.833 2.479 1.674 4.01-.297 1.755 1.892 1.453 2.254 2.643-.808.089-1.348-.684-2.135-.704-.312 1.185-.921 2.097-.669 3.267.897.044 1.957-.903 2.972-.387a1.92 1.92 0 0 1-1.882.466c-1.075.377-2.194.991-2.476 2.052l.203.15c3.085-.938 6.8-2.896 10.039-.76l3.734-.148-2.337.421a.387.387 0 0 1 0 .144l-.887 1.705.842-.119-.168.313c1.55.153 3.323-.332 4.853-.075l-.237.174c.806.074 1.605.216 2.387.426 2.243.724 4.888 1.061 6.632 2.717-.421.496-1.02.044-1.442-.134-2.035-1.25-4.63-1.244-7.023-1.09a20.68 20.68 0 0 0 2.66.907c1.545 1.487 3.73 2.558 4.725 4.645 1.595 2.528 1.615 5.69 1.461 8.59-1.04.164-.287-.946-.778-1.367-1.906-2.023-3.338-4.854-6.18-5.345.643 2.816 2.971 5.126 3.615 7.833-.674-.679-1.253-1.904-1.902-2.692-.178 3.014-.941 6.147-1.317 9.018-.55.58 0 1.24-.1 1.898.268 1.066-.579 2.043-.945 2.88.425-1.164-.937-2.414-.496-3.802-.242-2.518-1.104-5.369-3.22-6.86-.38-.407-.41-.858-.792-1.27.208 1.393.278 2.975.62 4.278 0 .11-.075.442-.278.293l-.114.66.114 7.232c-.639.456.193 2.176-.896 1.314-.094-.13.034-.218.143-.199-.847-2.285-1.842-5.046-3.635-7.049l-.218-.035c.03 1.81.604 3.713.852 5.553l-.258.183c-.881-2.057-.564-4.585-1.674-6.573v10.564l-.148.198-1.169-1.83c-.956-2.31-.882-4.61-2.095-6.731a1.9 1.9 0 0 1-.243.748l-.876-.148c0 1.244.282 2.305.312 3.435l-1.635-.957c-.054-.08-.094-.163-.143-.238a10.5 10.5 0 0 1-2.972-1.983.327.327 0 0 1-.074.055h.034c-.114 1.328-1.98 2.41-2.768 3.168-1.387.213-3.14.59-4.284-.62-.991-.169-1.417-.922-1.853-1.67a.655.655 0 0 1-.06-.452c-.792-.758-1.728-1.918-1.361-.466-.545-.099-.213-.714-.397-.991-.604.917-.193 2.449-.178 3.693-.134.768-.391 1.626.287 2.3-.148.203-.059.332-.386.278-1.055-.407-.317-2.087-1.689-1.983-.525-.873-.465-1.879-.753-2.83-.99-.06-.886 1.204-.886 1.878 0 .788.302 1.517.391 2.325-.327-.055-.6.228-.42.496-.258.862.41 1.537.623 2.255-.99-.06-.525-1.551-1.694-1.303l-.525-.883c-.624.347 0 1.244.03 1.81.198.143.525.203.495.421-.619.342-.495 1.036-.168 1.666.178.257.362.495.198.823-1.273-.447-.535-2.117-1.778-2.786-.698-2.48-2.734-4.417-3.09-6.94-.035-.457-.56-.66-.159-1.042 0-1.24-.575-2.578-1.04-3.782-.535 1.145-.178 2.335-.565 3.281-.06.992-.099 1.9.317 2.762l.46-.04c.412 1.537.878 3.42 1.487 5.101.287.278.653.788.267 1.056.372 1.76 2.16 2.518 2.313 4.234-1.04.163-1.273-1.116-1.981-1.69a1.24 1.24 0 0 0-.154.882 2.652 2.652 0 0 1-.683.956h.302c-1.486.789-1.05 2.187-2.694 2.578a5.049 5.049 0 0 0 4.26-1.185c.346-.05.163.367.34.625-.876.526-1.92 1.358-2.802 1.889l-.55-.094.054-.332c-.614-.333-1.53-.263-2.313-.283-.317 1.185-1.63.962-2.476 1.27a5.698 5.698 0 0 0-.545-.214c-.54.654-2.134.124-2.258 1.418l-.64.456c.219.04.164.367-.073.436-1.714-.08-5.449-.496-6.934-1.562a.432.432 0 0 0-.055.362c-1.486-.595-3.17-1.224-3.962-2.592-1.739-1.046-3.863-1.572-5.26-3.158-.495.109-1.124.149-1.382-.124-1.164-1.1-1.124-2.672-1.486-3.966-2.441-1.547-2.15-4.536-2.758-6.9l.312-.496c-.738-1.597-.966-4.23-3.046-4.581-.605.228.232.6-.06.991-.653-.109-.653-.783-1.119-1.318-.99-.278-1.382-1.81-2.605-1.235-1.536-.257-3.467-1.487-4.636.104a2.544 2.544 0 0 0-1.426.432s.198.148.183.258c-.817-.496-1.441.54-2.135.649l.198.139c-.42-.184-1.238 0-1.862.357-1.06.272-2.432 1.05-3.546.297-1.134.709-1.768-.188-3.066.154a.466.466 0 0 0 .213.714c3.616.62 6.988-.04 10.624-.209a3.044 3.044 0 0 1 3.264 0c.4.274.62.742.58 1.225-.68 0-.333.625-.63 1.021-.208 1.205-1.793 1.27-2.11 2.479-.346.054-.495.253-.658.56l.089.129c1.778-1.16 3.798-1.15 5.864-1.363.584-.13.708.46 1.11.753-1.21 1.824 1.762 1.542 1.629 2.975.94 1.06 1.282 2.36 2.1 3.514-.936.858.832 1.72 1.139 2.563 1.907 2.018 3.63 4.462 5.626 6.599.931-.179 1.456.699 2.244.723l-.783-.694c.857.263 1.952.447 2.021 1.359 1.02.624 2.313 1.636 3.824 1.333.257-.183-.253-.496-.199-.823-.307-.168-.653-.114-.837-.372 1.372-.104 2.477.759 3.606 1.294.055.347 0 .565.218.714 1.654-.991 4.413.208 6.478.218 1.486-.624 3.413-.218 4.77-1.447a.832.832 0 0 0-.99-.169c-1.23.575-2.591 0-3.869.243l.04-.218c1.727.02 3.45-.139 5.146-.47l-.075.435c.951-.287 1.486-1.437 2.65-.991.258.496 1.055.406 1.486.496a.416.416 0 0 0 .109-.655c.456-.034.99-.62.644-1.13-1.184-.992-2.447.496-3.685.496-1.59.07-3.234.46-4.71-.124l.04-.218c3.03.064 6.294.064 8.568-2.028.58.55-.228 1.319-.12 2.013.164.367.55.094.764.134.604-.238.39-.952.227-1.32-.381-.406.08-1.114.045-1.566l.312.164c1.085 2.216 2.367 4.58 2.739 7.01.495-1.041.084-2.479.525-3.738.302 2.87-.208 5.825 1.149 8.427l.381-.272c-.292.406.496 1.1.154 1.715 0-.11-.074-.238-.164-.367-.252.184-.094.545 0 .783l.184.258c.128-.089.06-.322.188-.416.812 1.829.639 4.164 1.54 6.127 1.486-1.328.09-3.817 1.065-5.567 1.377 2.479.96 5.572 2.575 7.991.456-.034-.089-.803.59-.798a3.26 3.26 0 0 1 .257 2.414l1.328 1.463c.269.838.764 1.586 1.431 2.161l.094-.55c-.703-1.81-1.08-3.564-2.15-5.215 2.15 1.948 2.135 5.329 4.092 7.694-.47-1.21-.718-3.054.054-4.279.149-.198.456-.03.545.095.09.803.43 2.106-.213 2.558a18.966 18.966 0 0 1 2.1 4.694c.287.227.532.502.723.813l3.502 3.575c0-.675.956-1.636.138-2.117l1.135-.035c-.684-1.918.257-4.125 0-5.949-.857-.258-1.229.58-1.357 1.349.217.713-.828.872-.431 1.844.218.714 1.372-.104 1.332.793-.495.362-1.387-.466-1.535.416-.887-.719.064-1.685-.228-2.632-.159-.372-.99-.174-.758-.808.218.04.287.278.55.094-.243-3.197.337-6.593.644-9.692a12.082 12.082 0 0 0-2.194 4.918c-.15.203-.184-.253-.164-.367.411-2.409 2.263-4.005 2.66-6.306a30.512 30.512 0 0 0-3.195 3.515c-.129.085-.327-.06-.307-.163 1.486-1.329 2.348-3.208 3.997-4.279a91.232 91.232 0 0 0-1.154 9.385l.183.263 1.258-2.534.218.04c-.074-.912.99-1.983 1.328-3.153-.05-.347-.729-.352-.416-.858l1.738-.941c.109.689-.753 1.11-.99 1.854l-.461 4.655a.704.704 0 0 1 .267 1.06c-.901 1.31-.401 2.975-.659 4.512h.11c.584-.124.609-.908 1.099-1.16.253 1.17-.956 1.636-1.233 2.602l.386 2.325c-.456.03-.99-.738-1.218-.104-.63 2.37 1.436 4.075 2.214 6.127 1.05 2.435 2.223 4.78 3.036 7.288.733-.992-.392-2.325.143-3.47.496.421.778 1.368 1.085 2.21l.906 5.905c.545.768.357 1.859.406 2.885-.366.164-.366.838-.787.654-.872-.827-.867-2.18-.46-3.237a16.551 16.551 0 0 0-.877-4.094c-.753 1.115.138 2.508-.09 3.817l.288.272c.178 1.611-.411 3.089-.456 4.665-.163.308-.53.466-.495.813.495.422 1.664.169 1.644.957-.733.322-1.773-.193-2.476-.084-1.357 1.348-3.11 1.72-4.7 2.478.662.407 1.47.503 2.209.263.495-1.487 2.308-1.636 3.694-1.849.184.258-.114.66-.257.863-1.025.723-2.759.312-3.234 1.81a3.465 3.465 0 0 0 3.363-1.225c1.218.773 1.555-1.205 2.431-1.051l-.346.728c.564 0 .416.858 1.11.754-.496.362-.462 1.388-1.318 1.125-.124-1.264-1.461 0-2.135-.704-.238.07-.728.327-.674.675 1.17.426 2.318.287 3.428.356.644-1.13 1.926-2.037 2.189-3.564.109 0 .218.035.327.055-.094 1.22-1.16 2.166-1.674 3.202.098.107.215.195.346.258 1.437-.144 4.22.03 4.29-.362.495-2.171-1.204-4.154-1.655-6.142.763.803 1.947 1.794 2.085 2.944.199.15.278.392.496.427a22.754 22.754 0 0 0-1.125-6.623l-.42-.179c-.882-2.746-.248-5.795.55-8.477.049 1.026-.338 1.983-.035 2.811l.386-.268c.071-1.743.257-3.48.555-5.2l-.496.258c.555-1.939 0-3.381 0-5.409l.857-7.63c-2.209.407-1.877 3.739-2.972 5.454 0 .114-.148.203-.04.223.768-.545 1.066-1.621 1.744-2.29-.025 1.457-1.654 2.419-1.936 4.065l-.09-.803a.356.356 0 0 1-.237.07c.762-3.139 2.16-6.059 2.942-9.306-.07.739-.196 1.471-.377 2.191 2.011-.555.56-2.612 1.06-4.213l.243 2.523c.693-.104 1.08-1.056 1.827-1.487-.059.991-1.228 1.928-1.832 2.84-.139 2.122-.53 4.417-.634 6.316l.223.035c.574-1.364.6-2.831 1.367-4.046-.317 1.86-1.04 4.1-1.397 6.182h.11c.494-.253.732-.991 1.208-1.14.326.729-.61 1.586-1.05 2.186.143.496-.189 1.096 0 1.349.079 1.487-.496 2.845-.55 4.526.054.347-.258.857.307.838v.123c.54-1.745 1.218-3.514 1.486-5.28.223-.639 1.08-.376 1.1-1.164a6.33 6.33 0 0 1-.887-2.742c-.763-.128.297-.401.044-.892.083-2.854.499-5.69 1.238-8.447l-.44 4.54c.416.19-.075.442-.114.66-.084 2.479-.604 4.853 1.193 6.856.421-.496-.138-1.15-.03-1.81l-.272-.386-.386.273.208-1.88c.713-.897.852-2.34 1.238-3.286-.203 1.205-.644 1.805-.723 2.92.936 3.088 3.645 4.343 4.344 7.51-.243 1.423.92 2.524 1.02 3.897l.891 1.388.446-.6c.495.312.377 1.076.738 1.586 0-1.239-.59-2.478-.495-3.797.094-1.319-2.2-2.295-.951-3.658.153-2.226-.495-4.368-1.03-6.485-.6-.44-.496-1.1-.961-1.63-.154 1.551-1.823 3.41 0 4.729-.203.525-.585.124-.783 0-1.852-1.671-1.535-4.204-2.288-6.366 0 .11-.148.204-.168.313.59-1.488-.753-2.162.381-3.545a21.45 21.45 0 0 0-.084 2.479l.347-.05c.119 1.939.95 3.659 1.654 5.453l.148-.198c.189-1.77.62-3.614.719-5.508l.257-.183c.63 1.572.659 3.376 1.887 4.72-1.02.723.164 1.715-.119 2.686.803.59.307 1.517.496 2.231-.57.694-.243 1.423-.496 2.172l1.214 2.131.797-3.36c.193 1.486-.911 3.34-.535 5.095.961 1.626 1.917 3.936.723 5.642l-.772 5.165-.406.387c-.09-.803.242-1.418.173-2.34l-.951.293a24.443 24.443 0 0 0-.99 3.881c.797.59-.352 1.408-.466 2.067.248 1.165.698 2.48 1.827 3.134.62.356 1.818.05 2.71-.114a.823.823 0 0 1-.154-.347 3.307 3.307 0 0 1-2.749-1.037c-.857-.932-.084-2.156.283-2.974l.218.04c.138 1.15-.58 3.39 1.555 3.42.621.182 1.29.092 1.842-.248-.213-.709-1.981-.337-1.872-1.561-.035-.451-.178-.932.119-1.334.307.164.193 1.487.946 1.066 1.486.59 3.68 1.532 5.284.68l.332-.62c-.396-.293-1.332-.12-.99-.734 1.659-.496 3.204.991 4.705.124a18.562 18.562 0 0 0 4.165-.635c-1.98-.337-3.962.218-6.077-.03l.188-.416c-.807.09-1.52.307-2.323.392a10.458 10.458 0 0 1 3.933-1.245c0 .566-.679.67-1.134.704 1.312.228 2.625-.228 3.997-.327l-.055-.347c.421-.496 1.486-.084 2.115.139.68.354 1.465.448 2.209.263a17.548 17.548 0 0 0-8.197-1.339z" fill="#FDB945"/><path d="M63.075 27.117c.035-.217.184-.419.41-.38.749.237-.19.414-.116.655l2.898 2.281.739-.32c.385.399.81-.089 1.084.29.05 1.02-.564 2.596.724 3.035 1.854 1.098 4.102.586 5.745-.375.12-.694.71-1.477.974-2.27a.393.393 0 0 0 .1.088c1.459-.537 3.452-1.645 5.035-1.6-.114.655-.999.492-1.094 1.049-.13.763-1.293.906-1.094 1.719.145-.202.585-.123.535-.468 2.118-1.099 3.996-2.798 6.364-3.3 1.309-.986 3.367-.439 4.786-.084-1.809.59-3.687.946-5.11 1.936a64.06 64.06 0 0 1 6.883-1.547.628.628 0 0 1-.12.059c-.39.95-1.593 1.798-2.168 2.463l1.734-.153.035.453c1.87-.436 3.783-.67 5.704-.7l3.347.917c-1.399.207-2.962.06-4.416.596l.215.714 3.911.985c2.263 1.394 4.681 3.148 5.625 5.547-.095.541.345 1.29-.464 1.374.03 1.123.834 2.379.624 3.58l-3.442-3.718a5.625 5.625 0 0 0-1.209-1.552c-1.288-.438-2.742-.571-3.541-1.827-.43.493.34 1.29.334 1.97l-.699.104c3.996 2.462 4.051 7.388 3.222 11.52-.245.74-.3 1.74-.5 2.266-.819-2.492-.819-5.743-2.227-8.107l.799 2.704c.155 1.704.734 3.596.524 5.463-1.044-1.183-1.333-2.798-1.998-4.148l.19-.414c-.92-.605-1.594-1.97-2.378-2.64a5.045 5.045 0 0 1-2.243-1.477c.09.798.8 1.926 1.26 2.561l-.256.182a53.848 53.848 0 0 1 1.09 11.388c-.096.064-.17.074-.18.123-.535-1.428-1.114-3.27-2.378-4.364-1.3-1.674-1.324-4.142-3.347-4.925-.625-.325-.894-1.384-1.649-.951l1.21 1.552c.01.581.105 1.158.279 1.714-.615 1.97-.115 7.364-.615 8.516-.829-2.379-1.383-5.635-3.072-7.708-.334-.06-.939-.493-.859-.931-.08 2.157 0 4.236.6 6.102-.565-1.285-1.874-2.832-2.343-3.94-.605-1.108-.93-2.512-2.083-3.044.799 1.891 1.368 3.886 2.357 5.674l-1.828-1.551c-1.768-.3-1.039-2.527-2.378-3.315-.5.812.47 1.871.56 2.67-.2-.035-.355-.301-.65-.257-.814-1.04-2.472-1.842-2.652-2.985-.55.577.365 1.182-.08 1.774-1.793-1.424-1.469-3.941-2.663-5.6l-.164.31c.704 1.797.719 3.703 1.668 5.418-.68 0-.754.428-.944.847-.57-.65-.25-1.833-1.074-2.31l-.165.31c.4 1.63.08 3.482 1 4.758-.545.601-1.105-.27-1.634-.749a20.595 20.595 0 0 1-2.243-6.477l-.045 1.562c-.894 1.867-.35 3.975-.69 5.91l-.26.183-.764-1.478a21.419 21.419 0 0 0-.634-4.433c-.04.325-.77.655-.914.916-.03 2.793-1.589 5.221-.57 7.881-.5.251.09.803-.41 1.05-1.243-1.33-1.123-3.326-1.283-5.03-.19 1.089-.435 2.502-.05 3.576-.555.577-.395 1.61-.5 2.266a1.196 1.196 0 0 1-.584-1.217c-.97-.945-1.034-2.526-1.918-3.35-.095-2.703-1.929-5.25-1.914-7.94l-.37.168c-.319 2.517-1.848 6.069-.369 8.674a13.69 13.69 0 0 0-.95 2.862h-.109c-1.374-1.911-.5-4.344-1.059-6.34-.58-1.886 1.104-3.728 1.604-5.324a30.57 30.57 0 0 0-2.238 4.99c-.375.832.32 2.069-.53 2.374-1.613-1.172-.335-3.305-.18-4.847-.424-.182 0-.675-.055-1.02l-1.064 3.518-.125.088c-1.258-2.566.625-4.925 1.154-7.31l-1.403.887-.205-.148c.065-.985.999-1.738.77-2.462l-.47.704c-1 1.064.214 2.724-1.374 3.354-.09-.128.06-.335-.035-.458l-.28.29-.165-.364-.39.271c-.34-1.29.86-2.32 1.27-3.369a18.568 18.568 0 0 0-2.353 3.749c-.085 1.778-1.434 3.004-2.498 4.048l-.09-.123c-.864-4.851 2.653-8.738 4.416-12.358-.5.251-.39.94-1.03.724.5-.251-.294-.276-.109-.695a7.484 7.484 0 0 0 1.773-1.714l-.774.542c-.56 1.251-2.997 1.507-3.287 3.251-1.608 1.409-3.072 3.295-4.496 4.847-.44-.744.285-1.63-.21-2.054.56-1.246 1.424-2.33 1.999-3.581 1.278-1.478 1.928-3.256 3.496-4.556.555-1.246 2.468-1.153 3.612-1.852-1.858.246-3.497 1.202-5.14 1.477-.63 1.02-2.418 1.478-2.918 2.419l-.2-.143A20.857 20.857 0 0 1 41 41.431l1.658-2.08c2.858-2.093 5.765-5.077 9.412-5.806.22.039.584-.124.404-.38l-1.498.192c-1.419.32-2.603 1.912-3.997 1.562.055-.325.5-.813.3-1.069l-1.623 1.517c-.11-.69.739-.985.944-1.522.624-.34 1.149-1.374 1.938-1.355l-.315.493c.645-.448 1.679-.493 2.143-1.207.755-.433 2.428-.26 2.268-1.295 1.544-.409 3.537-.744 5.08.187.41-1.05-2.132-.808-1.338-2.133l.225.04c.33.059.164.364.125.58l.44.08c.279-.985 1.343.113 1.897-.463-1.428-1.581-3.706-2.197-6.149-2.498-1.324-.221-2.872.188-3.956-.108a8.711 8.711 0 0 1 2.997-.384 2.551 2.551 0 0 1 2.118-.429c3.167-1.128 6.114.714 9.002 1.764z" fill="#FFF797"/><path d="M56 36.457c-.249.578-.59.503-.948.543-.256-.855.501-.532.734-1 .171.046.14.33.214.457zM59.44 46c-.81-.303.44-.662.55-1 .12.359-.88.626-.55 1zM59.688 48l-.42-.13.57-.87c.14.26.34.93-.15 1zM62.7 51c-.22 0-.67-.1-.37-.473l.55-.527c.4.264-.34.564-.18 1zM62.385 54c-.671-.09-.242-.792-.327-1.021L62.82 52c.533.716-.272 1.26-.435 2zM90 11.366c-.065 1.222-1.497.128-2.17.55-.797.403-1.8.488-2.381 1.069-.38.067-.483-.092-.44-.367 1.275-1.537 3.257-2.035 4.991-1.252zM90 13.569c-.06.328-.421.49-.863.411-.69-.558-1.368.103-2.137 0 .154-.867 1.374-.77 2.088-.98.456.044.877.118.912.569zM90.993 15.594c-.264.775-1.235.199-1.905.217L89 15.522c.065-.396.588-.438.894-.522.388.066 1.187.066 1.1.594zM100 18c-.562 0-.438-1-1-1l1 1zM101 20a10.072 10.072 0 0 0-3-.262c.085-.59.517-.67.943-.738.78.302 1.765.181 2.057 1zM103 22.99c-.732.103-1.307-.651-2.248-.695L99 22.13c1.229-.244 3.362-.239 4 .86zM108 30l-3-1.661c.108-.235.326-.367.548-.334 1.046.135 1.965.884 2.452 1.995zM110 35.765l-.16.235c-.843 0-1.152-1.147-1.84-1.382.73-1.56 1.904.212 2 1.147zM84 59.574c-.15.739-.608.276-.868.352-.238-.076-.117-.511.07-.767.205-.4.586.035.798.415zM81 60.334c-.291.975-1.598.248-1.917 1.342-.674.14-1.54.637-2.083.028 1.58-.118 2.009-1.837 3.669-1.69.274-.074.234.174.331.32zM73.03 60.336c.543.477 1.084.949.949 1.664a2.408 2.408 0 0 1-1.517-.521c-.374-.699-2.13-1.254-1.187-2.479.699.266.954 1.697 1.756 1.336zM120 74c-1.572-.527-2-2.06-3.345-3.08-.172-.585-1.138-1.387-.35-1.92 1.934.849 3.181 3.185 3.695 5z" fill="#231F20"/><path d="M78.957 62.95c-.691.124-1.439.012-1.957-.292.218-.241-.135-.545.481-.658.52.23 1.765.448 1.476.95zM76.993 63.491a.41.41 0 0 1-.197.426.56.56 0 0 1-.525.033c-.629-.089-1.132-.502-1.271-1.044l.679-.906c.577.233.924 1.007 1.314 1.491zM78 65.514c-.093.603-.629.5-.974.439C75.862 65.67 74.804 64.988 74 64c1.403.368 2.348 1.426 4 1.514zM28.995 61.644c.049.37-.262.434-.443.273-1.503-.792-1.282-3.066-1.552-4.703l.129-.214c.602 1.482.514 3.537 1.866 4.644zM76.918 68c-1.47-.139-3.016-.55-3.918-1.896l.142-.104L77 67.503l-.082.497zM119 74l-.913-.38c-.242-.232.067-.511.357-.62.295.207.5.575.556 1zM72.952 70c-.44-.285-.956-.75-.952-1.694l.029-.306c.198.847 1.2 1.139.923 2zM78.97 69c-.746-.242-1.766 0-1.97-.556.352-1.01 2.259-.065 1.97.556zM78 70.69c-.097.624-.711.124-1.052.062-.28-.438-.853-1.185-1.29-.629-.244.079-.391.303-.615.264-.239-.685.584-.78.793-1.387.726.522 1.55 1.19 2.164 1.69zM73 70.855v.139c-.982.102-1.473-1.072-1.94-1.566L71 69c.594.512 1.4 1.343 2 1.855zM78 72.673c-.929.636-2.313-.762-2.769.985-.15.109-.066.378-.33.338l-.113-.149c-.042-.521.6-.945.563-1.598-.503-.212-1.654-.665-1.276-1.249 1.456.235 2.57.934 3.925 1.673zM80.765 74.16A4.856 4.856 0 0 1 79 75a3.148 3.148 0 0 1 1.772-2c.492.087.042.833-.007 1.16zM77.96 74.3l-.41-.3.45.07z" fill="#231F20"/><path d="M76.173 77c-.687-1.008.842-2.072 1.613-3l.214.421L76.173 77zM73 73.17c-.083.317-.306.6-.63.796-.26.152-.4-.238-.33-.589.05-.151.6-.629.96-.207zM38.99 71.684c.072.277-.265.334-.37.311-1.72-1.004-4.008-1.08-4.62-3.7l.482-.295c1.435 1.351 3.164 2.356 4.508 3.684zM80.43 77.565c-.555.134-1.33-.372-1.476.542l-.47 1.085c.136.517.639.708 1.137.92l.24-.186c-.348.873 1.82.692.536 1.39l-.522-.089-1.119 2.371c.588.346 1.298.594 1.88.945.364-.265.59-.704.612-1.182l-.607.48c.123-.796.94-1.23 1.359-1.86-.39 2.51-2.116 4.65-2.195 7.232.592-.357.77-1.498 1.5-2.066l.154.382A11.475 11.475 0 0 1 79.311 91c-.705-1.653.606-3.88 1.1-5.682l-1.848-1.172-.79 1.611c-.065-1.653 1.138-3.187 1.58-4.649-.569-.46-1.57-1.59-1.993-.258a.745.745 0 0 1-.141.91l-.207-.042c-.15-1.08 1.19-2.123.052-3.042.244-.186.672.475 1.053.077l.649-1.405c-.362-.423-1.129-.325-1.12-1.033.626.119 1.764 1.033 2.083-.315-.592.966.668.976.7 1.565z" fill="#231F20"/><path d="M76.034 80L76 79.51A15.55 15.55 0 0 1 77.966 76l.034.496L76.034 80zM73.014 77c-.096-.413.3-.814.986-1-.066.392-.421.753-.986 1zM82 78c-.17.566-.628.772-1 1 .222-.36.568-.982 1-1zM84.156 79c-.093 0-.076-.126-.156-.258.151-.424.489-.71.873-.742.482.672-.552.576-.717 1zM73.54 78.733l-.514.267c-.193-.485.74-.573.84-1 .42.165-.273.515-.327.733zM121 92c-1.233-1.613-1.27-3.252-2-5a14.413 14.413 0 0 1 2 5zM84 82c.093-.4.454-.761 1-1-.155.386-.504.735-1 1zM87 82.074c-.088.597-.7.474-.872.926-.376-.318.19-.576.241-.926.204.037.45-.183.631 0zM74.39 85c-.4-1.016.35-2.051.61-3-.22.82.17 1.984-.61 3zM87.252 87l-.25-.058c-.04-.671.442-1.379.901-1.942.397.917-.544 1.242-.651 2zM90 89c.132-.41.29-1.544 1-2-.051.7-.393 1.385-1 2zM76.233 88L76 87.953c.152-1.362.481-2.694.976-3.953.165 1.113-.568 2.706-.743 4zM87 90c0-.948.698-2.004 1-3a28.407 28.407 0 0 1-1 3zM82.809 87.965c-.578.985-1.44 1.825-1.423 3.002-.427.155-.468-.276-.277-.572.711-1.5 1.469-3.204 2.891-4.395l-.821 2.017-.37-.052zM92.021 90.552c.199.844-.263 1.571.174 2.344l1.183-.97c-.134.782-.85 1.016-1.178 1.641l-.646 4.515.224.041c1.252-2.095 2.013-4.622 3.598-6.65l-.348 4.79c.289.284-.149.9-.208 1.235a61.163 61.163 0 0 0-.622 9.152l.164.366c.81-1.47 1.04-3.514 1.188-5.085l-.75.448c-.398-1.017.85-1.704 1.402-2.293v.798c.347-.056.79-.671.994-1.215.134-1.475.69-2.766.238-4.119-.442.616-.497 1.526-.725 2.304.169-1.017.343-2.716 1.173-3.615.561 1.372.08 2.903.198 4.194l.92-.762c-.348.752-.706 1.494-1.327 1.845-.323 3.3-1.183 6.386-.244 9.554l.602.452L96.768 113l.631-2.43c-.695-.58-.8-1.297-1.123-2.034-.572 0-.497.96-1.029.747 1.546-1.805.696-4.154 1.293-6.36l.134-1.48c-2.113 1.825-.83 4.942-2.54 7.067a9.719 9.719 0 0 1-.17 4.363c-.447-2.034.702-4.154-.208-6.167l.298-6.646a10.425 10.425 0 0 0-1.347 6.01l-.442.615c-.298 1.8-.239 4.124-.651 5.898-.319-2.827.591-6.254.755-9.233.209-1.236.855-2.395 1.059-3.63l-2.297 2.257c.19 2.227-.094 4.606.135 6.61a19.584 19.584 0 0 1-.676-4.068l-.423-.188a46.626 46.626 0 0 0 1.491-9.569c-.865 1.124-2.023 2.65-2.286 4.22-.75-.244-.164-1.062.025-1.495.725-2.303 3.584-3.879 2.376-6.757a4.965 4.965 0 0 1 .91-2.73c.745.95-.702 1.51-.662 2.552zM119.227 96.673l.192-.352c.335.858.531 1.762.581 2.679-.936-1.45-1.913-3.413-3-4.772l.174-.228c.754.838 1.44 1.732 2.053 2.673zM77.34 90c-.02-.682.183-1.36.6-2 .3.544-.63 1.354-.6 2zM118.994 101L117 97c.922.875 2.092 2.492 1.994 4zM77.557 91c-.248-.045-.436-.13-.516-.234-.08-.104-.043-.217.101-.31l.84-.456c-.104.245.293.8-.425 1zM82.704 95.248c.582-.342.733-.966 1.233-1.43a14.26 14.26 0 0 1-.79 6.182h-.129c.053-1.486 1.03-3.59.541-5.038-.581.136-.133.614-.453.895l-.861.31c.448-.258.128-.624-.233-.783-.704-.417-.343.38-.901.51-.338-.895 1.646-2.75-.111-3.205.39.051.902.122.966-.192l.238-.497c.425 1.101-1.704 3.046.5 3.248zM115.266 99.18l.187-.098.244.382-.503.051c0 .588 1.265.861.625 1.485-.753-.306-1.38-.749-1.819-1.284.244-.32 1.014-.108.827-.716.093.144.23.278.439.18zM77.84 92.688l-.84-.38c0-.22.51-.36 1-.29l-.16.67zM114 102c-1.126-.7-1.855-1.793-2-3 1.362.487 1.376 2.056 2 3zM113 103.754c-.026.12-.102.213-.197.239-.095.026-.193-.019-.255-.115-.59-.762-.718-1.936-.314-2.878.517.677.256 1.968.766 2.754zM115.811 105c-.556-.475-.865-1.318-.803-2.187l.215-.813c-.02 1.002 1.243 2.15.588 3zM115 106c-.302-.548-.983-1.181-1-2 .575.456.732 1.139 1 2zM114 110c-.878-1.245-1.463-3.4-2-5 1.11 1.426 1.612 3.291 2 5zM115.472 117.47v3.187l.697-.658.207.14c1.46-1.741.576-3.87 1.384-5.804l.222.039c.098 2.4-.214 4.8-.924 7.105-.434 1.136-1.161 2.007-1.803 3.008-.111 0-.333-.058-.298-.27-.172.3-.247.73-.596.783-1.01-.716.434-1.794.293-2.902.182-2.936.864-6.123 0-8.905l.152-.193c1.277 1.05.707 2.936.666 4.47zM88 31.007c-.242.922-1.945.834-3 .993.356-.818 1.716-1.043 3-.993zM86.945 46.867c-.31.39-.537-.163-.682-.525-.166-.212-.118-.709-.263-1.042.464-.992.473.78.917.915.161.24.04.517.028.652zM117 64c-1.356-.263-2.693.263-4-.304.233-1.528 1.81 0 2.712-.422.16.823 1.104.07 1.288.726zM117 59.775l-.035.225c-.669-.141-1.221-1.084-1.727-1.57-1.191.104-2.236-.823-3.238-1.389 1.891-.309 3.843 1.163 5 2.734zM116.785 50.57c1.883.364 2.834 2.155 4.215 3.108-.646.908-1.345-.378-1.96-.505l-1.793-1.608c-1.704 1.165-1.677-1.7-3.099-1.746l-.148-.368c.565.338.188-.54.682-.444 1.103.111.928 2.598 2.103 1.564zM115.697 52.693c.662.195.754.917 1.303 1.099l-.036.195c-.605.11-.718-.51-1.4-.612-1.026-.248-1.538-1.032-2.564-1.183 1.056-.647 1.636.55 2.697.501zM123.915 57.465c.62-.122.785.97 1.33.696-.363 2.04 2.07 1.928 1.72 3.839-.376-.216-.829-1.385-1.565-1.169-.39-.882-.762-.304-1.418-.713-.585-.935-1.512-1.53-1.982-2.57.115-.907.771-.492 1.13-.147.196.73.413-.158.785.064zM124.785 61.684l1.215.27c-.675 1.258-2.516.775-3.81 1.046-.267-.035-.219-.256-.06-.345.558-.035.79-.454 1.257-.725-.608-.419.298-.744.723-.789.59-.365 1.057.035.675.543z" fill="#231F20"/><path d="M119.437 132.983c-1.15.82-2.63.905-3.858 1.492a4.37 4.37 0 0 1-1.584-.16c-.852.657-2.476.722-3.343.672-.99-.164-1.728-1.089-2.015-2.049.094-.541.099-1.223-.535-1.446-.272-1.064.95-1.338.46-2.437v.045c.61-2.267 1.65-5.499 2.283-7.875.124-.085.362-.16.401-.378l-.495-.423c-.94-1.75-1.644-3.56-2.803-5.34-.93.184-.445 1.283-.99 1.755-1.198-.89.649-1.814.07-3.042-1.234-1.343-2.214-2.864-3.63-3.789-1.08.378.173 1.616-.99 1.755-.496 2.854-2.05 6.518-1.51 9.322-.08.11-.298.125-.496.08 0 .065 0 .134.03.204-.748 1.124.173 2.292.074 3.525l.842 2.227-.104.522c-.283.995.574 1.432.079 2.357l.57 2.59c-.273.294-.57 0-.763-.134a8.66 8.66 0 0 1-1.728 2.193l-4.422-.443c-2.58.751-5.586-.67-8.052.333l.094-.551c-.99-.279-2.337-.174-2.916-.726-1.422-.244-2.417.944-3.853.81.436-.602 1.025-.73 1.337-1.243.213.035.545.095.688-.11l-.069-.238-7.348-.497a3.547 3.547 0 0 1-1.04.164l.074-.443c2.743-2.237 6.388-1.158 9.532-2.43l-.07-.24a17.438 17.438 0 0 0-6.436.816l.04-.219a27 27 0 0 1 8.328-1.283c-.604-.437-1.644-.283-1.98-.795 1.827-.134 3.738.527 5.615.74-.431-.755-1.748-.994-1.818-1.894l.496-.144 2.97 1.865c.387-.955.055-2.486-.252-3.341a9.292 9.292 0 0 0-.337-1.99l-.252.18c-.431-1.427.07-3.043-.104-4.654-.15-.7-.375-1.381-.669-2.033-.46.706-.54 1.83-.99 2.43-.193-1.49.43-3.206.218-4.598-.411-1.541-.203-3.426-1.605-4.475l-.534 1.154c-.342-.627-.085-1.492-.189-2.183l-3.387-4.221c.288.733.636 1.442 1.04 2.118l-.114.661c-1.545-1.491-2.119-3.42-2.911-5.365-.381-.402-.273-1.064-.797-1.267-1.189.363-1.273-1.119-1.872-1.562-.084-1.491-1.813-1.894-2.412-3.017-.609.914.758 1.491.59 2.485-.654-.109-.179-.934-.887-.72-.272-1.064-.138-2.486-1.154-3.133-.371.16-.44.602-.495.93-.233-.607-.044-1.705-.242-2.53-.961-1.636-1.441-3.411-2.19-5.012-.494.368.451 1.327-.445 1.282-.198.532-.495 1.044-1.243.691-.525-1.56-.936-3.097-1.584-4.564.034-.223-.144-.497-.218-.72-.679.67.228 1.963-.867 1.77.495-1.04-.95-2.313.416-3.093-.416-.865-.376-1.76-.792-2.625-.768.547.173 1.616-.302 2.436l-.218-.035a7.917 7.917 0 0 1-.134-3.187c-.56-1.342-.495-3.137-1.659-4.137-.262.866-.321 1.87-.886 2.561-.193-1.492 1.198-3.073.272-4.246.203-.532-.158-1.049-.302-1.521-.564 0-.331.621-.698.785l-2.783 1.78c-1.678-.065-3.664-.293-5.07.711a4.342 4.342 0 0 1-2.58.323c-.64.26-1.303.457-1.98.587-1.982-.224-3.997-.343-6.072-.701-2.768-.93-5.481-1.492-7.814-3.038-2.585-1.352-4.56-4.29-6.704-6.24-.203-.149-.679 0-.728-.353l-1.015-1.302c-1.16-1.78-1.347-3.978-1.927-5.872-.416-.86-1.297-.333-2.02-.691-.109-.691-.946-1.064-1.436-1.492-1.02.045-1.897-.104-2.684.552-1.406-.353-2.54 1.034-3.813-.09.59-1.49 2.164-2.112 3.249-3.171l-.04-.463a16.771 16.771 0 0 0-6.933 3.779c-.252.184-.623.348-.802.09-.178-.935 1.228-1.259 1.065-2.303 1.243-.69 2.58-1.253 3.644-2.197-1.98-.234-3.466 1.89-5.57 1.645a8.07 8.07 0 0 0-1.605.17l-.876-.145c.752-.437 1.881-.467 2.743-.885.787-.66 1.718-.835 2.392-1.491-1.238-.662-2.664.447-4.085.204-2.19-.378-4.764-.498-6.324-1.88A.802.802 0 0 1 2 50.46l.386-.274c3.724.765 7.586.491 11.167-.79-.53-.2-1.204-.204-1.714-.497 1.921 0 4.165.034 5.942-.995l-1.04-.522c2.684.124 5.66-.83 8.389.318.91-.07.851.94 1.639.96l.406-1.06c.668.682.337 1.99.99 2.88a19.872 19.872 0 0 1 2.526 5.633l-.496.363c.288 1.635.317 3.45 1.57 4.683.258-.184-.54-1.452.495-.934.956 1.605.99 4.216 2.476 5.628.1-.323-.148-.701-.341-1.074.04-.895-.248-1.85.143-2.8.213.722.391 1.651.753 2.163l.495 1.104c1.411 1.601 3.154 3.257 5.269 4.067.703 1.144 2.094 1.606 3.421 1.72a.608.608 0 0 1-.188.438c1.124.094 3.095.865 3.778.293.55.095 1.258.557 1.793.08l-2.66-1.586c1.96.435 3.966.632 5.973.586-.877-.253-1.753-.497-2.16-1.173 2.204.264 4.63 1.243 6.334-.159-.41-1.541.877-.621 1.486-1.422a2.276 2.276 0 0 1-.04-.447c-.34.1-.686.182-1.035.243-.347.05-1.025.05-1.188-.313l.168-.313c1.278-.234 2.719-.095 3.709-1.283-.495-1.104.41-2.416-.683-3.281-.273-.393.133-.776-.377-1.084l-1.149.134c-.351.736.174 1.616-.376 2.198-.495-.532-.302-1.527-.901-1.964l.243-.751c-.634-.9-.758-2.168-.877-3.43a10.052 10.052 0 0 1-1.926-1.91c-.6.234.688 1.924-.59 1.492.174-1.666-.495-3.133-1.015-4.58-.723-1.029-.118-2.62-.059-3.629-1.208 1.149-1.213 2.486-1.367 4.057l-.351.055c-.342-1.298.341-2.65.544-3.858l-.183-.259c-.55.582-.629 1.7-1.376 2.138-.496.935-1.323 1.81-1.402 2.923-.079.438.233 1.283-.376 1.522-.347-.622.213-1.885-.718-2.382-.495-1.67.218-3.918.703-5.42 0-2.033 1.292-3.619 1.847-5.558-.396-.293-.183.423-.42.498-2.506 1.491-4.012 4.4-5.448 6.866-.04.218.03.452-.114.656l-.252-.497c-.347.05-.401.383-.55.582.164.362 0 .566-.04.9l-.128.084c-.05-1.024.297-1.755.233-2.67.752-1.795.03-3.48 1.168-4.887.852-1.66 2.53-2.959 2.417-4.898-.421-.184-.916.751-1.154.14-1.406.323-2.199 1.655-3.402 2.128-1.045.835-2.58 1.929-3.13 3.187-.153.198-.46.04-.55-.09.422-.84 1.516-1.427 2.05-2.372-.059-1.83 3.26-3.48 4.24-4.802l-.09-.13-.386.274c.703-2.138 2.59-3.978 4.313-5.47-.782-.695-.57.697-1.337.563-3.595.626-6.274 3.783-8.913 6.04l-.144.2c.64-1.13 1.833-2.168 3.06-3.431a28.843 28.843 0 0 1 13.836-5.872c.148-.88-.941-.388-1.382-.468-.837.309-1.624-.387-2.476-.084-1.639.393-3.357.552-4.768 1.551l-1.02.055c3.199-1.596 6.521-2.61 10.205-2.426l.387-.274c-1.114-.76-2.694-.69-4.214-1.064-1.82-.02-3.64.082-5.447.303 2.05-1.456 4.952-1.402 7.294-2.485 1.896.094 3.719-.04 5.58.278.931-.855.134-2.128.763-3.147L61 19.142c-.347-.627-1.238-.666-1.347-1.363.604-.233 1.485 1.159 2.005.125.624-1.024-.495-1.561-.847-2.297.585-.125.99.736 1.605.497 1.683-1.293-1.124-1.989-.203-3.43.708.462 1.703 2.56 2.679.8-.392-1.65-1.446-3.41-.817-5.116.346 1.302.99 2.66 1.134 3.928.777.696 1.445-.542 2.193-.995-.465-1.894.421-4.475.921-6.06-.099 1.909-1.074 3.659-.04 5.533l1.52-1.283c-.173-1.615.803-3.37 1.462-4.609-.184 1.1-.798 2.69-.327 3.903L75.95 7.15c1.377-2.138 1.446-5.176 3.134-7.15l.184.259c-.496.82-1.525 1.66-1.035 2.759-.555 1.263-.96 2.322-.857 3.694a4.858 4.858 0 0 1 1.788.085C80.892 4.604 82.07 1.64 84.665.278c-.99.498-1.624 1.641-2.416 2.297L80.134 6.4c.857.258 2.025 0 3.08.417 1.426-1.113 2.66-2.366 4.23-2.983-.991 1.184-2.363 1.99-3.467 3.028 1.02.627 2.367.632 3.407 1.149 2.248-1.308 4.456-2.983 6.893-3.446-.917.746-2.229 1.198-3.343 1.795-.807.77-1.847.93-2.436 1.73.837.373 1.639.96 2.62 1.129.787-.656 2.138-.646 3.055-1.397.638.224 1.366-.105 1.896.1.09.81-.772.546-1.282.914-.327-.055-.877-.15-.931.179l.277.388c3 .927 5.927 2.074 8.76 3.43l-.258.18-4.154-1.393c-.055.333-.144.88-.402 1.06.322.735 1.204.208 1.694.63a19.34 19.34 0 0 1 3.793 3.481c.748.244 1.644.283 2.134.711-.188.418-.733.328-1.099.497l1.847 3.098c1.456.7 2.892 1.491 4.333 2.327l-.164.313c-1.02.05-1.871-.89-2.807-.711l.05 1.024 2.827 3.878-.203.532c1.292.994 2.07 2.392 3.466 3.316l-.163.309c-.917.07-1.6-1.179-2.476-.761a4.562 4.562 0 0 1-.827-.497c.064.86 0 1.929.307 2.232.084 1.492 1.614 1.74 2.213 2.859.065 1.6 1.575 2.65 3.07 3.132-.04.219.689.567.179.935-.788 0-1.15-1.218-2.204-.945.723 1.03.59 2.486.99 3.56-.277 1.646.565 3.262 1.714 4.475l.837 1.049c1.748 3.142 5.387 4.29 7.298 7.095 1.402.805 2.58 2.227 3.893 3.192 1.242 0 1.307 1.58 1.634 2.317.104.696.668 1.357.317 2.088-.877-.144-.6-1.795-1.436-2.163-.99 1.188-1.58 2.665-3.135 3.192-1.263.8-3.01.497-4.278 1.298-.6-.443-.748.437-1.095.497l.139 1.83 3.546 2.312-.06.328c-1.149.144-2.035-1.253-3.02-.746l3.664 8.885-.055.328c-1.183-.995-1.356-2.605-2.357-4.018-.163-.372-.396-.994-.703-1.143.53 2.804 1.377 5.777 1.456 8.616.847 2.292 1.347 4.639 2.54 6.881.178.259-.074.438-.208.532a14.898 14.898 0 0 1-1.807-3.251 1.531 1.531 0 0 0-.604.233c.196 2.171.515 4.33.955 6.464a9.957 9.957 0 0 1 2.04 3.858l-.257.179c-.758-.81-.99-1.989-1.901-2.7-.377 2.874.336 5.932.53 8.796l-.134.094c-.342-.626-.188-1.492-.624-2.257-.792 1.337-.183 3.018-.53 4.43-1.05 1.491.149 3.077 0 4.634 0 .785.282 1.635-.198 2.456l-.178-.259a8.983 8.983 0 0 0-.421-3.48c-.238.074-.57 0-.733.328.44 2.675-.555 5.215-.911 7.98-1.298 1.024-.669 2.6-.802 4.047.38 1.079-.63 2.377.698 3.172-.04.219-.258.179-.382.273-.53-.203-.435-.75-.599-1.118-.807.765-.703 2.138-1.124 3.311-.168.313-.99.617-.495.93 1.114.08 2.154-.76 3.194-.92l3.184-2.163c.144 1.159-1.337 1.243-1.703 2.083 3.228-.467 6.412-1.948 9.859-1.695-2.229.497-4.952.617-7.27 1.686l.184.258c2.475.542 5.372.806 7.393 2.178-.57.69-1.486-.497-2.154.08 1.148.536 2.807.71 4.06 1.267l-.495.249c-2.352-.065-5.031-1.542-7.081-.085.688.577 2.753.363 2.64 1.7-.912.065-2.056-.472-3.026-.745-1.857-.318-6.066.9-7.527 1.546l-.074-.02z" fill="#231F20"/><path d="M66.906 50c0 .11.05.22.09.34a.46.46 0 0 0-.09-.34zM88.096 3c-.296-.195.176-.497.3-.592L89.996 1c.086.953-1.372 1.32-1.9 2zM72.225 2.88L72.01 3c-.058-.62.158-1.653.991-2 .003.677-.269 1.337-.775 1.88z" fill="#231F20"/><path d="M92 9.022c-.08.44-.41 1.07-.78.55l-.18-.26c.05-.22.52-.37.96-.29z" fill="#FFF"/><path d="M65 6.78c-.08.304-.52.256-.7.077L64.53 5c.63.228.4 1.146.47 1.78zM61.78 13c-.59-.37-.4-1.114-.5-1.584l.33-.416c.07.624.72 1.61.17 2z" fill="#231F20"/><path d="M82.877 19.559L83 21c-1.516-1.072-3.503-1.209-5-2.411.893-1.498 2.483-.925 3.695-1.589.922.573.27 1.991 1.182 2.559z" fill="#FDB945"/><path d="M60 14.844c-.45.448-.763-.187-1-.431.11-.896.936-.139 1 .431z" fill="#231F20"/><path d="M83 21.71c0 .742-.442 1.305-.132 1.99-.352 1.425-1.034 2.897-2.599 3.26-1.212.22-2.472-.521-3.577-.931-.253-.997-1.132-2.1-.418-3.14-.376-1.546.395-2.897 1.41-3.889 1.65 1.034 3.99 1.113 5.316 2.71z" fill="#FFF"/><path d="M68 19.122c-1.277 1.06-3.377 1.73-4.786 2.878L63 21.959c.614-1.06.824-3.012 2.222-3.465.848-1.123 2.12-.077 2.778.628z" fill="#FDB945"/><path d="M79.813 22.45c.35.944.204 1.979-.397 2.817-.711.772-1.281.81-2.24.667-1.796-.904-1.04-2.668-.892-4.146.355-.212.685-.456.984-.727.564.71.267 1.538.217 2.536.066.159.21.282.392.334.181.051.38.026.537-.07.44-.81-.149-2.15.972-2.861.984.033.359 1.07.427 1.45z" fill="#231F20"/><path d="M69 24.237c-.278.385-.038.86-.443 1.324.363.384-.142.84-.194 1.148-.787.19-.424 1.225-1.292 1.291L63.3 25.628c-.26-1.016-.65-2.487.34-3.284L68.222 20c.65 1.191.471 2.87.778 4.237z" fill="#FFF"/><path d="M67.532 26.661c-.426.557-1.406.362-1.895-.11-.965-1.074-.629-2.52-.312-3.856.232-.072.307-.556.584-.139.396 1.113-.555 2.17.702 2.782.916-.84-.064-2.543 1.07-3.338.553 1.507.31 3.11-.15 4.661zM45 28.109c-.451.64-1.354 1.332-2 .528.587-.787 1.503-.684 2-.528z" fill="#231F20"/><path d="M52 30.44c.23-.62.507-.33 1-.44-.333.13-.694.5-1 .44z" fill="#FFF"/><path d="M55 45c.417-1.222 1.112-2.265 2-3-.928.58-1.221 1.961-2 3z" fill="#231F20"/><path d="M54 49.058c-.26.159-.15.775-.41.942-.43-.07-.42-1.276.41-.942zM69.994 53.7c-.52.37-.36-.52-.11-.7-.04.21.15.48.11.7z" fill="#FFF"/><path d="M88 57.594c-.204.521-.6.429-.996.328-.066-.58.726-1.563.996-.328zM117 63.47l.674-.47.326.55zM85 59c-.754-.559-.977-1.316-.59-2l.59 2zM64.78 55l.22.025-.27.975-.22-.019z" fill="#231F20"/><path d="M57 56c-.395-.64-.441-1.343-.13-2l.13 2z" fill="#FFF"/><path fill="#231F20" d="M58.52 55.48l-.14-.48.62.33zM20 49.155c-.45.922-1.914.155-2.78.845l-.22-.052c1.052-.354 1.958-1.322 3-.793zM105 69c.11-1.896 2.416-2.891 4-4-1.359 1.342-3.364 2.05-4 4zM20 49l1 .19-1-.19zM1 49.73c-.142.442-.467.249-.705.072L0 49.38c.18-.905.755.052 1 .35z"/><path d="M18 54l-.48.15L18 54zM16 55l-.48.15L16 55zM15 55.51l.82-.51.18.03z" fill="#FFF"/><path d="M67.47 80c-.65-.664.49-1.287.53-2l-.53 2zM84 85l-.49 1 .49-1zM83.78 86l.22.05-.07.44-.22-.04zM96 88.298c-.05.417-.463.313-.625.702-.138 0-.42-.114-.37-.531.1-.258.274-.43.47-.463.195-.034.39.075.525.292zM95.77 90l.23.03-.12.66-.22-.03z" fill="#231F20"/><path d="M124 96c-.44-.043-.88-.826-.14-1l.14 1z" fill="#FFF"/><path d="M98.14 93c-.162-.7.143-1.41.86-2-.45.69.21 1.488-.86 2zM92 90c-1.523 2.61-2.43 5.592-2.64 8.677-.121.092-.173.434-.36.286-.017-3.283 1.047-6.464 3-8.963z" fill="#231F20"/><path d="M94.773 94.611c-.356.153-.718.306-.688.732.883.037.141 1.074.283 1.518-.274.273-.4.986-.903.695L92 99c.337-2.472 2.055-4.63 2.93-7 .131.872.078 1.76-.157 2.611zM122.677 98.89c-.21 0-.32-.74.15-.89-.07.45.52 1-.15.89z" fill="#FFF"/><path d="M79.355 93c-.601 0-.266-.671-.225-.966.173-.423.482-.967.848-1.034.136.812-.387 1.154-.623 2z" fill="#231F20"/><path d="M123.983 100c-.84-.224-.24-.727-.18-1 .17.322.23.663.18 1z" fill="#FFF"/><path d="M97 98l-.79 2 .79-2zM118.964 106l-.964-2c.741.422 1.124 1.216.964 2zM88 103a9.193 9.193 0 0 1 2-4c-.232 1.458-1.675 2.567-2 4zM108.71 109.873c-.81 0-.184.827-.71 1.127l.782-5c.703 1.17-.562 2.468-.071 3.873zM117.988 109.308c-.393.946.168 2.038-.033 3.095-.106.589.134 1.03-.077 1.597l-.317-.049c-.153-1.534.048-3.206-.561-4.617.005-.588.71-.27.988-.026zM89.99 104.707c-.255.63-.51-.1-.85-.19l-.14-.25c.224-.41 1.1-.41.99.44zM98.237 108l-.237-.044c.022-.76.365-1.474.94-1.956.254.67-.365 1.434-.703 2zM99.48 109.434c-.926 1.53-.539 3.18-.71 4.85-.407 2.414-1.211 4.535-.461 6.696-.368 1.49-.794 3.364-1.015 4.68-.76-.134-.181-.934-.446-1.321-.637 1.132-.23 2.667-1.064 3.661a9.057 9.057 0 0 0-.25-4.471l-.936-.383c-.226-2.643-.77-5.33-.544-8.003a32.579 32.579 0 0 1 1.382 5.663c.265-2.216.98-4.357.77-6.533.093-1.227-1.363-2.484-.182-3.532.265.382-.132.765-.186 1.093.883 1.396.294 2.876.613 4.282-.662 1.923.363 3.796.372 5.714.564-.696.26-1.54.407-2.415.201-1.212.211-2.563 1.01-3.323-.264-1.064 1.167-2.981-.054-3.627-.377-1.083.711-1.575.643-2.484.294-1.078.353-2.082 1.058-2.981.339.64-.171 1.684-.406 2.434zM89 106.71c-.326.15-1.045-.26-.998-.71.279.31.754.19.998.71z" fill="#231F20"/><path d="M89 106c0 .764-.73 1.404-.955 2-.236-.809.516-1.596.955-2zM102.944 109.083c.242.35-.364.72-.592.917-.812-.197 0-.653.258-.96.023-.101.167.019.334.043zM92.15 110c-.19-.25.15-.89.85-1-.08.46-.6.82-.85 1zM90.356 110l-.295-.033c-.22-.304.2-.728.576-.967.863.181-.054.74-.281 1zM116.924 125.566c.19.26 0 .22-.29.4l-.07-.93c.25-.17.4.31.36.53z" fill="#231F20"/><path d="M96.9 123l.1.69-.1-.69zM121.3 130.14l.48-.14.22.03z" fill="#FFF"/><path d="M98.995 131.412c-.318.864-.25 1.94-1.044 2.57-.3.039-.603.015-.897-.07-.408-2.353 1.65-.16 1.345-2.353.067-.518-.162-1.106.206-1.559.56.106.345.865.39 1.412z" fill="#231F20"/><path d="M99 130.73c0 .096-.083.302-.424.266-.637-.17-.493-.675-.576-.996.459.168.811.425 1 .73z" fill="#231F20"/><path d="M90 129.709c-1.586 1.098-3.53 1.567-5.289 2.291L82 131.546a39.63 39.63 0 0 1 5.698-1.318l.701-.674c.056-.334-.394-.41-.598-.554.787.02 1.846.08 2.199.709zM79 130.645c-.616.7-1.33 0-2 0 .455-1.43 1.33 0 1.912-.25l.088.25zM76 29.405c-.451.971-.799 2.074-1.933 2.486A4.165 4.165 0 0 1 71 31.424c1.001.269 1.788-.427 2.726-.509.462-.453.794-.997.966-1.586-.486-.884-2.24-.68-2.656-1.21 1.366-.269 3.46-.178 3.964 1.286zM122.891 84.534c-.927.669.235 1.535.097 2.466L122 83.724c.227-.913-.186-1.849.219-2.724 1.235.983.32 2.19.672 3.534zM109 113c-1.23-.746-1.846-1.866-2.93-2.703.8-1.145-.892-2.42-.775-3.662L105 106c1.348 2.274 3.077 4.695 4 7zM91.831 121.417c0 .672-.229 1.63.169 2.047-.27.613 0 1.227-.124 1.536-.402-2.317-.647-4.492-.876-6.77l.486-.23c.394 1.085.124 2.371.345 3.417zM86.937 97.025L86 98c.059-2.375 1.039-4.25 2-6-.239 1.535.473 3.82-1.063 5.025zM101.168 69.755c-.705.382-1.508.314-2.168-.183L101.981 68c.147.603-.604 1.028-.813 1.755z" fill="#FDB945"/><path d="M79.182 54.607a1.615 1.615 0 0 1-.38-.433c-.515-.136-1.235-1.044-1.585-1.09-.082.453-.216 1.267-.818 1.398-.797-.141-.247-1.352-1.029-1.482-.34.647-.123 1.398-.37 2.186.267.522.355 1.367 1.132 1.622.884.277 2.057.355 2.767-.47.314.053.664-.844 1.101-1.298a1.454 1.454 0 0 1-.818-.433z" fill="#FBCDC6"/><path d="M121.803 127.355c-1.218-.094-1.63 1.636-2.773 1.106-.709.333-1.436.623-2.18.867l1.1-1.17a2.268 2.268 0 0 0-1.862 1.036c-.169.308.193.818-.387.947-.436-.074-.43-.748-.708-1.14.116-.379.373-.699.718-.892l.307.168c.847-2.335 1.387-4.833 2.021-7.208.149-.872.753-1.78.58-2.716a52.167 52.167 0 0 0-3.567 9.647l-.237.07c-.139-1.151.614-2.261.946-3.555-.926-.496.262-1.532.282-2.31a6.763 6.763 0 0 1 1.273-2.157c.262-1.532 1.486-2.677 1.06-4.214a.664.664 0 0 1 .44-.6c.1-1.224 0-2.478.07-3.708.495 1.666.054 3.62.812 5.101l.352-.05c.555-1.932 1.02-4 .901-5.948-.237.074-.599.238-.673 0l-1.13-4.586c1.328.784.882 2.742 1.68 4.006.495-1.487.103-3.252.148-4.823l-.312-.164c-.134-1.83-.238-3.872-1.179-5.612 2.165 1.84.926 5.116 2.229 7.372-.05-1.026.812-2.112.565-3.287-.179-2.545-.12-5.1.178-7.634l-1.6-5.795.124-.09 1.516 4.318a3.83 3.83 0 0 0 .698-.788l-.659-.11a2.143 2.143 0 0 1 .337-1.982c-.901-2.632-1.436-5.453-2.209-8.155l.495-.144.144-3.47-2.625-5.071c.035-.218.272-.293.495-.144a17.613 17.613 0 0 0 2.105 2.84c.555-1.933-.109-3.965.025-6.082-1.486-1.264-1.486-3.748-2.694-5.31-3.26 1.924-5.865 5.31-6.32 9.286-.882.53.247 1.175-.495 1.606-.218.64.599 1.115.178 1.606-1.15-.53-.317-2.077-1.045-3.108-.238.07-.699.783-.931.178-.733.327-.114 1.334-.466 2.062l-.223-.04c-.099-2.042.679-3.94.45-5.898-1.376 2.131-2.54 4.957-2.55 7.679-.807.089-.762-.809-.782-1.379.208-1.2-.283-2.3-.53-3.47a11.963 11.963 0 0 1 .138-2.796l-.38.278c-.566 1.77-.918 3.6-1.05 5.453a7.318 7.318 0 0 1 .35-4.675c-.054-.342.68-.674.15-.872-2.972 2.087-2.18 6.162-3.601 9.186-.456.04-.496-.422-.778-.694.168-.992-.253-1.845.03-2.816-.149-2.395.297-5.022.693-7.322-.287-.278-.807.084-1.223-.1-1.882-.208-3.849-.545-4.81-2.176l.055-.327c5.19 1.904 8.86-3.103 12.575-5.736l-.198-.148c-1.387.213-2.63.902-3.997.991 1.59-1.423 3.962-1.353 5.904-2.26.768.129 1.317-.451 2.08-.323 1.62.392 3.561-.401 4.794.937.528-.107.927-.54.991-1.075-.792-1.944-1.6-4.462-3.898-4.839.253.496 1.694.63 1.456 1.373-2.095-.922-4.992-1.08-7.033-2.33-.109 0-.054-.347.06-.332l5.086 1.21c-1.679-.739-3.402-2.479-4.616-3.966a78.082 78.082 0 0 0 9.227 4.625l.164.367c-.183.417-.565 0-.822.198l3.873 3.03c-.114.654.95.386 1.223.768-1.065.947-2.972.168-4.15 1.204.109 0 .089.13.069.238a1.227 1.227 0 0 0-1.04.154l.005.342-.99-.278c-.07-.237.495-.361.078-.436-.198-.149-.346.055-.495.144-.013.12.066.23.183.258-1.98-.337-3.759.258-5.695-.303l-.362.164.159.367c-.714.892-1.902.575-2.69 1.23-1.902 1.248-4.26 2.537-4.893 4.912-.54 1.82-1.075 3.644-.936 5.453a35.402 35.402 0 0 0 1.278-3.5c-.263 1.532-1.035 3.43-1.12 5.22 1.214-1.819 1.66-4.461 2.695-6.529l.361-.163-.99 3.098.218.04c.99-1.75 2.293-2.875 3.467-4.462l.361-.163c.1 2.042-1.486 4.025-.832 6.167-.094.55-.223 1.313.144 1.829 1.149-1.487 1.486-3.47 2.209-5.032 0 .11.094.13.183.258.95-.967 1.451-2.568 2.333-3.773-.773 1.9-.496 4.2-.065 6.301l1.937-4.065c.238-.748-1.13-.64-.342-1.299 2.01-1.239 3.938-2.597 6.236-2.875 2.902-1.195 6.612-1.12 8.776-3.906l.045-1.572c-1.714-1.259-3.591-2.146-4.953-3.792a1.22 1.22 0 0 1-.753-1.071c-1.857-.992-3.234-2.756-5.037-4.08-.064-.917-1.124-1.324-1.56-2.072l-.238.07c0-.784-.96-.958-1.303-1.582-.723-2.375-3.353-2.152-4.214-4.328.619-.342.153-.877-.268-1.06-.114 0-.094-.13-.183-.259.966.283 1.322 1.488 2.214 2.187.42-.496 1.04-.159 1.436.138a7.775 7.775 0 0 0-.064-1.59c-.258.187-.496.366-.803.088.223-.64-.564-.664-.723-1.026.238-.07.362.496.62.332.079-1.115-2.08-.357-1.724-1.76-.798-.59-1.768-.862-2.417-1.655 1.644-1.071 2.362 1.308 3.769 1.665-1.045.828.47 1.205.941 1.735.134-.768-.52-1.556-.149-2.394-.47-1.884-2.327-2.88-2.937-4.56-.767-.135-1.074-.992-1.56-1.399-.708-.46-1.565-.719-2.144-1.269.223-.64 1.04-.163 1.436.134.62.337.966.957 1.748.991.075-.436 0-2.325 0-2.885a.406.406 0 0 1 .085 0 1.171 1.171 0 0 1 0-.143c-2.254-2.643-5.384-4.08-8.88-4.68 1.92-.684 3.555.947 5.561 1.06l2.477 1.33c-.758-1.488-1.828-3.134-2.809-4.65.104 0 .456-.036.402-.383l-2.858-1.73c-.035-.46.678 0 .857-.421-.778-1.368-1.65-2.87-3.25-3.376.773-1.22-.703-1.81-1.391-2.38A24.94 24.94 0 0 1 95.27 11.8c.163-.308.456-.714.896-.635.441.08.729.347 1.18.313-1.308-.903-3.24-1.458-5.063-1.983-1.074.381-1.664 1.184-2.862.297-.11-.69-.99-.734-1.62-1.066-.95.293-1.98.992-2.144 1.983-.694.104-.803.759-1.1 1.16l-.381-.401c-.496.143-.575 1.368-1.248.689l-.05-.342 2.417-2.296c-.03-.456-.361-.495-.287-.951-.495-.53-1.422-.243-1.748-.992l-.53.496-1.239 3.966c-.128.089-.4.381-.693.109l-.07-.912-.99 1.07c-.248-1.17 1.035-2.077 1.461-3.242.362-.163.46-.714.738-.991-.495-.53-2.234.496-1.66-.853-.068-.238-.42-.183-.633-.218-.703 1.457-.817 3.47-.99 5.13-.496.145-.734.992-1.333.561-.064-1.591.887-3.232 1.169-4.868-.47-.535-1.278.228-1.748-.302l-.218-.04c-.213 1.879-.709 3.47.124 5.21-.04.213-.204.526-.53.471-.6-.436-.56-1.334-1.14-1.889-.42-.857 0-1.918.03-2.81-.381-.407-.822.198-1.297.341-.738.992-2.214 1.086-3.13 1.83.158 1.04.45 1.983.37 3.108l-.252.183c-.401-.991-1.768-1.536-.99-2.76-.64-.224-1.08.376-1.486.758.292.951 1.342 1.363.956 2.31a.99.99 0 0 1-1.308-.228c-.406-.293-.104-1.368-.857-.932-.55.58-.99 1.185-.554 1.933l-.04.218c-.911.07-.58-1.224-1.54-1.487-.624.342-1.56 1.2-.669 1.914.164.371.99.624.797 1.264a.812.812 0 0 1-1.149-.536l-.455-.644-.788.654c0 .674.99.734.763 1.487-.624.348-1.486-1.046-1.842.243-.332.62.341.63.525.883-.699 1.457-2.308 2.974-1.372 4.724-.094.55-.644 1.126-.025 1.463.203-.53.842-.308 1.297-.342l.055-.333h-.56c.55-.58 1.154-1.487.956-2.31.758-1.794 1.57-3.901 3.799-4.427 1.535-.411 1.575 1.983 3.19 1.11.94 1.067 1.738-.936 2.828-.079-.114.66-.827.199-1.1.496-.46.714-1.699.045-1.575 1.309 1.253 1.904.347 4.57.466 6.504-.238.749-1.1 1.165-1.343 1.914.57 0 .937-.858 1.63-.962 1.426-.431 3.105-1.046 4.487.094.327.177.571.477.679.833.257-.54.55-1.07-.387-1.234-.302-1.522-1.188-2.91-.708-4.408.386-1.626.035-3.47 1.486-4.704-.362-.496-1.436-.808-1.303-1.577l1.858.992c.99-.62 2.12-1.22 3.254-1.244a3.123 3.123 0 0 1 3.467-.427c.104 0 .069.238.05.347-.585.124-1.19-.312-1.769-.193.797 1.264 1.833 2.479 1.674 4.01-.297 1.755 1.892 1.453 2.254 2.643-.808.089-1.348-.684-2.135-.704-.312 1.185-.921 2.097-.669 3.267.897.044 1.957-.903 2.972-.387a1.92 1.92 0 0 1-1.882.466c-1.075.377-2.194.991-2.476 2.052l.203.15c3.085-.938 6.8-2.896 10.039-.76l3.734-.148-2.337.421a.387.387 0 0 1 0 .144l-.887 1.705.842-.119-.168.313c1.55.153 3.323-.332 4.853-.075l-.237.174c.806.074 1.605.216 2.387.426 2.243.724 4.888 1.061 6.632 2.717-.421.496-1.02.044-1.442-.134-2.035-1.25-4.63-1.244-7.023-1.09a20.68 20.68 0 0 0 2.66.907c1.545 1.487 3.73 2.558 4.725 4.645 1.595 2.528 1.615 5.69 1.461 8.59-1.04.164-.287-.946-.778-1.367-1.906-2.023-3.338-4.854-6.18-5.345.643 2.816 2.971 5.126 3.615 7.833-.674-.679-1.253-1.904-1.902-2.692-.178 3.014-.941 6.147-1.317 9.018-.55.58 0 1.24-.1 1.898.268 1.066-.579 2.043-.945 2.88.425-1.164-.937-2.414-.496-3.802-.242-2.518-1.104-5.369-3.22-6.86-.38-.407-.41-.858-.792-1.27.208 1.393.278 2.975.62 4.278 0 .11-.075.442-.278.293l-.114.66.114 7.232c-.639.456.193 2.176-.896 1.314-.094-.13.034-.218.143-.199-.847-2.285-1.842-5.046-3.635-7.049l-.218-.035c.03 1.81.604 3.713.852 5.553l-.258.183c-.881-2.057-.564-4.585-1.674-6.573v10.564l-.148.198-1.169-1.83c-.956-2.31-.882-4.61-2.095-6.731a1.9 1.9 0 0 1-.243.748l-.876-.148c0 1.244.282 2.305.312 3.435l-1.635-.957c-.054-.08-.094-.163-.143-.238a10.5 10.5 0 0 1-2.972-1.983.327.327 0 0 1-.074.055h.034c-.114 1.328-1.98 2.41-2.768 3.168-1.387.213-3.14.59-4.284-.62-.991-.169-1.417-.922-1.853-1.67a.655.655 0 0 1-.06-.452c-.792-.758-1.728-1.918-1.361-.466-.545-.099-.213-.714-.397-.991-.604.917-.193 2.449-.178 3.693-.134.768-.391 1.626.287 2.3-.148.203-.059.332-.386.278-1.055-.407-.317-2.087-1.689-1.983-.525-.873-.465-1.879-.753-2.83-.99-.06-.886 1.204-.886 1.878 0 .788.302 1.517.391 2.325-.327-.055-.6.228-.42.496-.258.862.41 1.537.623 2.255-.99-.06-.525-1.551-1.694-1.303l-.525-.883c-.624.347 0 1.244.03 1.81.198.143.525.203.495.421-.619.342-.495 1.036-.168 1.666.178.257.362.495.198.823-1.273-.447-.535-2.117-1.778-2.786-.698-2.48-2.734-4.417-3.09-6.94-.035-.457-.56-.66-.159-1.042 0-1.24-.575-2.578-1.04-3.782-.535 1.145-.178 2.335-.565 3.281-.06.992-.099 1.9.317 2.762l.46-.04c.412 1.537.878 3.42 1.487 5.101.287.278.653.788.267 1.056.372 1.76 2.16 2.518 2.313 4.234-1.04.163-1.273-1.116-1.981-1.69a1.24 1.24 0 0 0-.154.882 2.652 2.652 0 0 1-.683.956h.302c-1.486.789-1.05 2.187-2.694 2.578a5.049 5.049 0 0 0 4.26-1.185c.346-.05.163.367.34.625-.876.526-1.92 1.358-2.802 1.889l-.55-.094.054-.332c-.614-.333-1.53-.263-2.313-.283-.317 1.185-1.63.962-2.476 1.27a5.698 5.698 0 0 0-.545-.214c-.54.654-2.134.124-2.258 1.418l-.64.456c.219.04.164.367-.073.436-1.714-.08-5.449-.496-6.934-1.562a.432.432 0 0 0-.055.362c-1.486-.595-3.17-1.224-3.962-2.592-1.739-1.046-3.863-1.572-5.26-3.158-.495.109-1.124.149-1.382-.124-1.164-1.1-1.124-2.672-1.486-3.966-2.441-1.547-2.15-4.536-2.758-6.9l.312-.496c-.738-1.597-.966-4.23-3.046-4.581-.605.228.232.6-.06.991-.653-.109-.653-.783-1.119-1.318-.99-.278-1.382-1.81-2.605-1.235-1.536-.257-3.467-1.487-4.636.104a2.544 2.544 0 0 0-1.426.432s.198.148.183.258c-.817-.496-1.441.54-2.135.649l.198.139c-.42-.184-1.238 0-1.862.357-1.06.272-2.432 1.05-3.546.297-1.134.709-1.768-.188-3.066.154a.466.466 0 0 0 .213.714c3.616.62 6.988-.04 10.624-.209a3.044 3.044 0 0 1 3.264 0c.4.274.62.742.58 1.225-.68 0-.333.625-.63 1.021-.208 1.205-1.793 1.27-2.11 2.479-.346.054-.495.253-.658.56l.089.129c1.778-1.16 3.798-1.15 5.864-1.363.584-.13.708.46 1.11.753-1.21 1.824 1.762 1.542 1.629 2.975.94 1.06 1.282 2.36 2.1 3.514-.936.858.832 1.72 1.139 2.563 1.907 2.018 3.63 4.462 5.626 6.599.931-.179 1.456.699 2.244.723l-.783-.694c.857.263 1.952.447 2.021 1.359 1.02.624 2.313 1.636 3.824 1.333.257-.183-.253-.496-.199-.823-.307-.168-.653-.114-.837-.372 1.372-.104 2.477.759 3.606 1.294.055.347 0 .565.218.714 1.654-.991 4.413.208 6.478.218 1.486-.624 3.413-.218 4.77-1.447a.832.832 0 0 0-.99-.169c-1.23.575-2.591 0-3.869.243l.04-.218c1.727.02 3.45-.139 5.146-.47l-.075.435c.951-.287 1.486-1.437 2.65-.991.258.496 1.055.406 1.486.496a.416.416 0 0 0 .109-.655c.456-.034.99-.62.644-1.13-1.184-.992-2.447.496-3.685.496-1.59.07-3.234.46-4.71-.124l.04-.218c3.03.064 6.294.064 8.568-2.028.58.55-.228 1.319-.12 2.013.164.367.55.094.764.134.604-.238.39-.952.227-1.32-.381-.406.08-1.114.045-1.566l.312.164c1.085 2.216 2.367 4.58 2.739 7.01.495-1.041.084-2.479.525-3.738.302 2.87-.208 5.825 1.149 8.427l.381-.272c-.292.406.496 1.1.154 1.715 0-.11-.074-.238-.164-.367-.252.184-.094.545 0 .783l.184.258c.128-.089.06-.322.188-.416.812 1.829.639 4.164 1.54 6.127 1.486-1.328.09-3.817 1.065-5.567 1.377 2.479.96 5.572 2.575 7.991.456-.034-.089-.803.59-.798a3.26 3.26 0 0 1 .257 2.414l1.328 1.463c.269.838.764 1.586 1.431 2.161l.094-.55c-.703-1.81-1.08-3.564-2.15-5.215 2.15 1.948 2.135 5.329 4.092 7.694-.47-1.21-.718-3.054.054-4.279.149-.198.456-.03.545.095.09.803.43 2.106-.213 2.558a18.966 18.966 0 0 1 2.1 4.694c.287.227.532.502.723.813l3.502 3.575c0-.675.956-1.636.138-2.117l1.135-.035c-.684-1.918.257-4.125 0-5.949-.857-.258-1.229.58-1.357 1.349.217.713-.828.872-.431 1.844.218.714 1.372-.104 1.332.793-.495.362-1.387-.466-1.535.416-.887-.719.064-1.685-.228-2.632-.159-.372-.99-.174-.758-.808.218.04.287.278.55.094-.243-3.197.337-6.593.644-9.692a12.082 12.082 0 0 0-2.194 4.918c-.15.203-.184-.253-.164-.367.411-2.409 2.263-4.005 2.66-6.306a30.512 30.512 0 0 0-3.195 3.515c-.129.085-.327-.06-.307-.163 1.486-1.329 2.348-3.208 3.997-4.279a91.232 91.232 0 0 0-1.154 9.385l.183.263 1.258-2.534.218.04c-.074-.912.99-1.983 1.328-3.153-.05-.347-.729-.352-.416-.858l1.738-.941c.109.689-.753 1.11-.99 1.854l-.461 4.655a.704.704 0 0 1 .267 1.06c-.901 1.31-.401 2.975-.659 4.512h.11c.584-.124.609-.908 1.099-1.16.253 1.17-.956 1.636-1.233 2.602l.386 2.325c-.456.03-.99-.738-1.218-.104-.63 2.37 1.436 4.075 2.214 6.127 1.05 2.435 2.223 4.78 3.036 7.288.733-.992-.392-2.325.143-3.47.496.421.778 1.368 1.085 2.21l.906 5.905c.545.768.357 1.859.406 2.885-.366.164-.366.838-.787.654-.872-.827-.867-2.18-.46-3.237a16.551 16.551 0 0 0-.877-4.094c-.753 1.115.138 2.508-.09 3.817l.288.272c.178 1.611-.411 3.089-.456 4.665-.163.308-.53.466-.495.813.495.422 1.664.169 1.644.957-.733.322-1.773-.193-2.476-.084-1.357 1.348-3.11 1.72-4.7 2.478.662.407 1.47.503 2.209.263.495-1.487 2.308-1.636 3.694-1.849.184.258-.114.66-.257.863-1.025.723-2.759.312-3.234 1.81a3.465 3.465 0 0 0 3.363-1.225c1.218.773 1.555-1.205 2.431-1.051l-.346.728c.564 0 .416.858 1.11.754-.496.362-.462 1.388-1.318 1.125-.124-1.264-1.461 0-2.135-.704-.238.07-.728.327-.674.675 1.17.426 2.318.287 3.428.356.644-1.13 1.926-2.037 2.189-3.564.109 0 .218.035.327.055-.094 1.22-1.16 2.166-1.674 3.202.098.107.215.195.346.258 1.437-.144 4.22.03 4.29-.362.495-2.171-1.204-4.154-1.655-6.142.763.803 1.947 1.794 2.085 2.944.199.15.278.392.496.427a22.754 22.754 0 0 0-1.125-6.623l-.42-.179c-.882-2.746-.248-5.795.55-8.477.049 1.026-.338 1.983-.035 2.811l.386-.268c.071-1.743.257-3.48.555-5.2l-.496.258c.555-1.939 0-3.381 0-5.409l.857-7.63c-2.209.407-1.877 3.739-2.972 5.454 0 .114-.148.203-.04.223.768-.545 1.066-1.621 1.744-2.29-.025 1.457-1.654 2.419-1.936 4.065l-.09-.803a.356.356 0 0 1-.237.07c.762-3.139 2.16-6.059 2.942-9.306-.07.739-.196 1.471-.377 2.191 2.011-.555.56-2.612 1.06-4.213l.243 2.523c.693-.104 1.08-1.056 1.827-1.487-.059.991-1.228 1.928-1.832 2.84-.139 2.122-.53 4.417-.634 6.316l.223.035c.574-1.364.6-2.831 1.367-4.046-.317 1.86-1.04 4.1-1.397 6.182h.11c.494-.253.732-.991 1.208-1.14.326.729-.61 1.586-1.05 2.186.143.496-.189 1.096 0 1.349.079 1.487-.496 2.845-.55 4.526.054.347-.258.857.307.838v.123c.54-1.745 1.218-3.514 1.486-5.28.223-.639 1.08-.376 1.1-1.164a6.33 6.33 0 0 1-.887-2.742c-.763-.128.297-.401.044-.892.083-2.854.499-5.69 1.238-8.447l-.44 4.54c.416.19-.075.442-.114.66-.084 2.479-.604 4.853 1.193 6.856.421-.496-.138-1.15-.03-1.81l-.272-.386-.386.273.208-1.88c.713-.897.852-2.34 1.238-3.286-.203 1.205-.644 1.805-.723 2.92.936 3.088 3.645 4.343 4.344 7.51-.243 1.423.92 2.524 1.02 3.897l.891 1.388.446-.6c.495.312.377 1.076.738 1.586 0-1.239-.59-2.478-.495-3.797.094-1.319-2.2-2.295-.951-3.658.153-2.226-.495-4.368-1.03-6.485-.6-.44-.496-1.1-.961-1.63-.154 1.551-1.823 3.41 0 4.729-.203.525-.585.124-.783 0-1.852-1.671-1.535-4.204-2.288-6.366 0 .11-.148.204-.168.313.59-1.488-.753-2.162.381-3.545a21.45 21.45 0 0 0-.084 2.479l.347-.05c.119 1.939.95 3.659 1.654 5.453l.148-.198c.189-1.77.62-3.614.719-5.508l.257-.183c.63 1.572.659 3.376 1.887 4.72-1.02.723.164 1.715-.119 2.686.803.59.307 1.517.496 2.231-.57.694-.243 1.423-.496 2.172l1.214 2.131.797-3.36c.193 1.486-.911 3.34-.535 5.095.961 1.626 1.917 3.936.723 5.642l-.772 5.165-.406.387c-.09-.803.242-1.418.173-2.34l-.951.293a24.443 24.443 0 0 0-.99 3.881c.797.59-.352 1.408-.466 2.067.248 1.165.698 2.48 1.827 3.134.62.356 1.818.05 2.71-.114a.823.823 0 0 1-.154-.347 3.307 3.307 0 0 1-2.749-1.037c-.857-.932-.084-2.156.283-2.974l.218.04c.138 1.15-.58 3.39 1.555 3.42.621.182 1.29.092 1.842-.248-.213-.709-1.981-.337-1.872-1.561-.035-.451-.178-.932.119-1.334.307.164.193 1.487.946 1.066 1.486.59 3.68 1.532 5.284.68l.332-.62c-.396-.293-1.332-.12-.99-.734 1.659-.496 3.204.991 4.705.124a18.562 18.562 0 0 0 4.165-.635c-1.98-.337-3.962.218-6.077-.03l.188-.416c-.807.09-1.52.307-2.323.392a10.458 10.458 0 0 1 3.933-1.245c0 .566-.679.67-1.134.704 1.312.228 2.625-.228 3.997-.327l-.055-.347c.421-.496 1.486-.084 2.115.139.68.354 1.465.448 2.209.263a17.548 17.548 0 0 0-8.197-1.339z" fill="#FDB945"/><path d="M63.075 27.117c.035-.217.184-.419.41-.38.749.237-.19.414-.116.655l2.898 2.281.739-.32c.385.399.81-.089 1.084.29.05 1.02-.564 2.596.724 3.035 1.854 1.098 4.102.586 5.745-.375.12-.694.71-1.477.974-2.27a.393.393 0 0 0 .1.088c1.459-.537 3.452-1.645 5.035-1.6-.114.655-.999.492-1.094 1.049-.13.763-1.293.906-1.094 1.719.145-.202.585-.123.535-.468 2.118-1.099 3.996-2.798 6.364-3.3 1.309-.986 3.367-.439 4.786-.084-1.809.59-3.687.946-5.11 1.936a64.06 64.06 0 0 1 6.883-1.547.628.628 0 0 1-.12.059c-.39.95-1.593 1.798-2.168 2.463l1.734-.153.035.453c1.87-.436 3.783-.67 5.704-.7l3.347.917c-1.399.207-2.962.06-4.416.596l.215.714 3.911.985c2.263 1.394 4.681 3.148 5.625 5.547-.095.541.345 1.29-.464 1.374.03 1.123.834 2.379.624 3.58l-3.442-3.718a5.625 5.625 0 0 0-1.209-1.552c-1.288-.438-2.742-.571-3.541-1.827-.43.493.34 1.29.334 1.97l-.699.104c3.996 2.462 4.051 7.388 3.222 11.52-.245.74-.3 1.74-.5 2.266-.819-2.492-.819-5.743-2.227-8.107l.799 2.704c.155 1.704.734 3.596.524 5.463-1.044-1.183-1.333-2.798-1.998-4.148l.19-.414c-.92-.605-1.594-1.97-2.378-2.64a5.045 5.045 0 0 1-2.243-1.477c.09.798.8 1.926 1.26 2.561l-.256.182a53.848 53.848 0 0 1 1.09 11.388c-.096.064-.17.074-.18.123-.535-1.428-1.114-3.27-2.378-4.364-1.3-1.674-1.324-4.142-3.347-4.925-.625-.325-.894-1.384-1.649-.951l1.21 1.552c.01.581.105 1.158.279 1.714-.615 1.97-.115 7.364-.615 8.516-.829-2.379-1.383-5.635-3.072-7.708-.334-.06-.939-.493-.859-.931-.08 2.157 0 4.236.6 6.102-.565-1.285-1.874-2.832-2.343-3.94-.605-1.108-.93-2.512-2.083-3.044.799 1.891 1.368 3.886 2.357 5.674l-1.828-1.551c-1.768-.3-1.039-2.527-2.378-3.315-.5.812.47 1.871.56 2.67-.2-.035-.355-.301-.65-.257-.814-1.04-2.472-1.842-2.652-2.985-.55.577.365 1.182-.08 1.774-1.793-1.424-1.469-3.941-2.663-5.6l-.164.31c.704 1.797.719 3.703 1.668 5.418-.68 0-.754.428-.944.847-.57-.65-.25-1.833-1.074-2.31l-.165.31c.4 1.63.08 3.482 1 4.758-.545.601-1.105-.27-1.634-.749a20.595 20.595 0 0 1-2.243-6.477l-.045 1.562c-.894 1.867-.35 3.975-.69 5.91l-.26.183-.764-1.478a21.419 21.419 0 0 0-.634-4.433c-.04.325-.77.655-.914.916-.03 2.793-1.589 5.221-.57 7.881-.5.251.09.803-.41 1.05-1.243-1.33-1.123-3.326-1.283-5.03-.19 1.089-.435 2.502-.05 3.576-.555.577-.395 1.61-.5 2.266a1.196 1.196 0 0 1-.584-1.217c-.97-.945-1.034-2.526-1.918-3.35-.095-2.703-1.929-5.25-1.914-7.94l-.37.168c-.319 2.517-1.848 6.069-.369 8.674a13.69 13.69 0 0 0-.95 2.862h-.109c-1.374-1.911-.5-4.344-1.059-6.34-.58-1.886 1.104-3.728 1.604-5.324a30.57 30.57 0 0 0-2.238 4.99c-.375.832.32 2.069-.53 2.374-1.613-1.172-.335-3.305-.18-4.847-.424-.182 0-.675-.055-1.02l-1.064 3.518-.125.088c-1.258-2.566.625-4.925 1.154-7.31l-1.403.887-.205-.148c.065-.985.999-1.738.77-2.462l-.47.704c-1 1.064.214 2.724-1.374 3.354-.09-.128.06-.335-.035-.458l-.28.29-.165-.364-.39.271c-.34-1.29.86-2.32 1.27-3.369a18.568 18.568 0 0 0-2.353 3.749c-.085 1.778-1.434 3.004-2.498 4.048l-.09-.123c-.864-4.851 2.653-8.738 4.416-12.358-.5.251-.39.94-1.03.724.5-.251-.294-.276-.109-.695a7.484 7.484 0 0 0 1.773-1.714l-.774.542c-.56 1.251-2.997 1.507-3.287 3.251-1.608 1.409-3.072 3.295-4.496 4.847-.44-.744.285-1.63-.21-2.054.56-1.246 1.424-2.33 1.999-3.581 1.278-1.478 1.928-3.256 3.496-4.556.555-1.246 2.468-1.153 3.612-1.852-1.858.246-3.497 1.202-5.14 1.477-.63 1.02-2.418 1.478-2.918 2.419l-.2-.143A20.857 20.857 0 0 1 41 41.431l1.658-2.08c2.858-2.093 5.765-5.077 9.412-5.806.22.039.584-.124.404-.38l-1.498.192c-1.419.32-2.603 1.912-3.997 1.562.055-.325.5-.813.3-1.069l-1.623 1.517c-.11-.69.739-.985.944-1.522.624-.34 1.149-1.374 1.938-1.355l-.315.493c.645-.448 1.679-.493 2.143-1.207.755-.433 2.428-.26 2.268-1.295 1.544-.409 3.537-.744 5.08.187.41-1.05-2.132-.808-1.338-2.133l.225.04c.33.059.164.364.125.58l.44.08c.279-.985 1.343.113 1.897-.463-1.428-1.581-3.706-2.197-6.149-2.498-1.324-.221-2.872.188-3.956-.108a8.711 8.711 0 0 1 2.997-.384 2.551 2.551 0 0 1 2.118-.429c3.167-1.128 6.114.714 9.002 1.764z" fill="#FFF797"/><path d="M56 36.457c-.249.578-.59.503-.948.543-.256-.855.501-.532.734-1 .171.046.14.33.214.457zM59.44 46c-.81-.303.44-.662.55-1 .12.359-.88.626-.55 1zM59.688 48l-.42-.13.57-.87c.14.26.34.93-.15 1zM62.7 51c-.22 0-.67-.1-.37-.473l.55-.527c.4.264-.34.564-.18 1zM62.385 54c-.671-.09-.242-.792-.327-1.021L62.82 52c.533.716-.272 1.26-.435 2zM90 11.366c-.065 1.222-1.497.128-2.17.55-.797.403-1.8.488-2.381 1.069-.38.067-.483-.092-.44-.367 1.275-1.537 3.257-2.035 4.991-1.252zM90 13.569c-.06.328-.421.49-.863.411-.69-.558-1.368.103-2.137 0 .154-.867 1.374-.77 2.088-.98.456.044.877.118.912.569zM90.993 15.594c-.264.775-1.235.199-1.905.217L89 15.522c.065-.396.588-.438.894-.522.388.066 1.187.066 1.1.594zM100 18c-.562 0-.438-1-1-1l1 1zM101 20a10.072 10.072 0 0 0-3-.262c.085-.59.517-.67.943-.738.78.302 1.765.181 2.057 1zM103 22.99c-.732.103-1.307-.651-2.248-.695L99 22.13c1.229-.244 3.362-.239 4 .86zM108 30l-3-1.661c.108-.235.326-.367.548-.334 1.046.135 1.965.884 2.452 1.995zM110 35.765l-.16.235c-.843 0-1.152-1.147-1.84-1.382.73-1.56 1.904.212 2 1.147zM84 59.574c-.15.739-.608.276-.868.352-.238-.076-.117-.511.07-.767.205-.4.586.035.798.415zM81 60.334c-.291.975-1.598.248-1.917 1.342-.674.14-1.54.637-2.083.028 1.58-.118 2.009-1.837 3.669-1.69.274-.074.234.174.331.32zM73.03 60.336c.543.477 1.084.949.949 1.664a2.408 2.408 0 0 1-1.517-.521c-.374-.699-2.13-1.254-1.187-2.479.699.266.954 1.697 1.756 1.336zM120 74c-1.572-.527-2-2.06-3.345-3.08-.172-.585-1.138-1.387-.35-1.92 1.934.849 3.181 3.185 3.695 5z" fill="#231F20"/><path d="M78.957 62.95c-.691.124-1.439.012-1.957-.292.218-.241-.135-.545.481-.658.52.23 1.765.448 1.476.95zM76.993 63.491a.41.41 0 0 1-.197.426.56.56 0 0 1-.525.033c-.629-.089-1.132-.502-1.271-1.044l.679-.906c.577.233.924 1.007 1.314 1.491zM78 65.514c-.093.603-.629.5-.974.439C75.862 65.67 74.804 64.988 74 64c1.403.368 2.348 1.426 4 1.514zM28.995 61.644c.049.37-.262.434-.443.273-1.503-.792-1.282-3.066-1.552-4.703l.129-.214c.602 1.482.514 3.537 1.866 4.644zM76.918 68c-1.47-.139-3.016-.55-3.918-1.896l.142-.104L77 67.503l-.082.497zM119 74l-.913-.38c-.242-.232.067-.511.357-.62.295.207.5.575.556 1zM72.952 70c-.44-.285-.956-.75-.952-1.694l.029-.306c.198.847 1.2 1.139.923 2zM78.97 69c-.746-.242-1.766 0-1.97-.556.352-1.01 2.259-.065 1.97.556zM78 70.69c-.097.624-.711.124-1.052.062-.28-.438-.853-1.185-1.29-.629-.244.079-.391.303-.615.264-.239-.685.584-.78.793-1.387.726.522 1.55 1.19 2.164 1.69zM73 70.855v.139c-.982.102-1.473-1.072-1.94-1.566L71 69c.594.512 1.4 1.343 2 1.855zM78 72.673c-.929.636-2.313-.762-2.769.985-.15.109-.066.378-.33.338l-.113-.149c-.042-.521.6-.945.563-1.598-.503-.212-1.654-.665-1.276-1.249 1.456.235 2.57.934 3.925 1.673zM80.765 74.16A4.856 4.856 0 0 1 79 75a3.148 3.148 0 0 1 1.772-2c.492.087.042.833-.007 1.16zM77.96 74.3l-.41-.3.45.07z" fill="#231F20"/><path d="M76.173 77c-.687-1.008.842-2.072 1.613-3l.214.421L76.173 77zM73 73.17c-.083.317-.306.6-.63.796-.26.152-.4-.238-.33-.589.05-.151.6-.629.96-.207zM38.99 71.684c.072.277-.265.334-.37.311-1.72-1.004-4.008-1.08-4.62-3.7l.482-.295c1.435 1.351 3.164 2.356 4.508 3.684zM80.43 77.565c-.555.134-1.33-.372-1.476.542l-.47 1.085c.136.517.639.708 1.137.92l.24-.186c-.348.873 1.82.692.536 1.39l-.522-.089-1.119 2.371c.588.346 1.298.594 1.88.945.364-.265.59-.704.612-1.182l-.607.48c.123-.796.94-1.23 1.359-1.86-.39 2.51-2.116 4.65-2.195 7.232.592-.357.77-1.498 1.5-2.066l.154.382A11.475 11.475 0 0 1 79.311 91c-.705-1.653.606-3.88 1.1-5.682l-1.848-1.172-.79 1.611c-.065-1.653 1.138-3.187 1.58-4.649-.569-.46-1.57-1.59-1.993-.258a.745.745 0 0 1-.141.91l-.207-.042c-.15-1.08 1.19-2.123.052-3.042.244-.186.672.475 1.053.077l.649-1.405c-.362-.423-1.129-.325-1.12-1.033.626.119 1.764 1.033 2.083-.315-.592.966.668.976.7 1.565z" fill="#231F20"/><path d="M76.034 80L76 79.51A15.55 15.55 0 0 1 77.966 76l.034.496L76.034 80zM73.014 77c-.096-.413.3-.814.986-1-.066.392-.421.753-.986 1zM82 78c-.17.566-.628.772-1 1 .222-.36.568-.982 1-1zM84.156 79c-.093 0-.076-.126-.156-.258.151-.424.489-.71.873-.742.482.672-.552.576-.717 1zM73.54 78.733l-.514.267c-.193-.485.74-.573.84-1 .42.165-.273.515-.327.733zM121 92c-1.233-1.613-1.27-3.252-2-5a14.413 14.413 0 0 1 2 5zM84 82c.093-.4.454-.761 1-1-.155.386-.504.735-1 1zM87 82.074c-.088.597-.7.474-.872.926-.376-.318.19-.576.241-.926.204.037.45-.183.631 0zM74.39 85c-.4-1.016.35-2.051.61-3-.22.82.17 1.984-.61 3zM87.252 87l-.25-.058c-.04-.671.442-1.379.901-1.942.397.917-.544 1.242-.651 2zM90 89c.132-.41.29-1.544 1-2-.051.7-.393 1.385-1 2zM76.233 88L76 87.953c.152-1.362.481-2.694.976-3.953.165 1.113-.568 2.706-.743 4zM87 90c0-.948.698-2.004 1-3a28.407 28.407 0 0 1-1 3zM82.809 87.965c-.578.985-1.44 1.825-1.423 3.002-.427.155-.468-.276-.277-.572.711-1.5 1.469-3.204 2.891-4.395l-.821 2.017-.37-.052zM92.021 90.552c.199.844-.263 1.571.174 2.344l1.183-.97c-.134.782-.85 1.016-1.178 1.641l-.646 4.515.224.041c1.252-2.095 2.013-4.622 3.598-6.65l-.348 4.79c.289.284-.149.9-.208 1.235a61.163 61.163 0 0 0-.622 9.152l.164.366c.81-1.47 1.04-3.514 1.188-5.085l-.75.448c-.398-1.017.85-1.704 1.402-2.293v.798c.347-.056.79-.671.994-1.215.134-1.475.69-2.766.238-4.119-.442.616-.497 1.526-.725 2.304.169-1.017.343-2.716 1.173-3.615.561 1.372.08 2.903.198 4.194l.92-.762c-.348.752-.706 1.494-1.327 1.845-.323 3.3-1.183 6.386-.244 9.554l.602.452L96.768 113l.631-2.43c-.695-.58-.8-1.297-1.123-2.034-.572 0-.497.96-1.029.747 1.546-1.805.696-4.154 1.293-6.36l.134-1.48c-2.113 1.825-.83 4.942-2.54 7.067a9.719 9.719 0 0 1-.17 4.363c-.447-2.034.702-4.154-.208-6.167l.298-6.646a10.425 10.425 0 0 0-1.347 6.01l-.442.615c-.298 1.8-.239 4.124-.651 5.898-.319-2.827.591-6.254.755-9.233.209-1.236.855-2.395 1.059-3.63l-2.297 2.257c.19 2.227-.094 4.606.135 6.61a19.584 19.584 0 0 1-.676-4.068l-.423-.188a46.626 46.626 0 0 0 1.491-9.569c-.865 1.124-2.023 2.65-2.286 4.22-.75-.244-.164-1.062.025-1.495.725-2.303 3.584-3.879 2.376-6.757a4.965 4.965 0 0 1 .91-2.73c.745.95-.702 1.51-.662 2.552zM119.227 96.673l.192-.352c.335.858.531 1.762.581 2.679-.936-1.45-1.913-3.413-3-4.772l.174-.228c.754.838 1.44 1.732 2.053 2.673zM77.34 90c-.02-.682.183-1.36.6-2 .3.544-.63 1.354-.6 2zM118.994 101L117 97c.922.875 2.092 2.492 1.994 4zM77.557 91c-.248-.045-.436-.13-.516-.234-.08-.104-.043-.217.101-.31l.84-.456c-.104.245.293.8-.425 1zM82.704 95.248c.582-.342.733-.966 1.233-1.43a14.26 14.26 0 0 1-.79 6.182h-.129c.053-1.486 1.03-3.59.541-5.038-.581.136-.133.614-.453.895l-.861.31c.448-.258.128-.624-.233-.783-.704-.417-.343.38-.901.51-.338-.895 1.646-2.75-.111-3.205.39.051.902.122.966-.192l.238-.497c.425 1.101-1.704 3.046.5 3.248zM115.266 99.18l.187-.098.244.382-.503.051c0 .588 1.265.861.625 1.485-.753-.306-1.38-.749-1.819-1.284.244-.32 1.014-.108.827-.716.093.144.23.278.439.18zM77.84 92.688l-.84-.38c0-.22.51-.36 1-.29l-.16.67zM114 102c-1.126-.7-1.855-1.793-2-3 1.362.487 1.376 2.056 2 3zM113 103.754c-.026.12-.102.213-.197.239-.095.026-.193-.019-.255-.115-.59-.762-.718-1.936-.314-2.878.517.677.256 1.968.766 2.754zM115.811 105c-.556-.475-.865-1.318-.803-2.187l.215-.813c-.02 1.002 1.243 2.15.588 3zM115 106c-.302-.548-.983-1.181-1-2 .575.456.732 1.139 1 2zM114 110c-.878-1.245-1.463-3.4-2-5 1.11 1.426 1.612 3.291 2 5zM115.472 117.47v3.187l.697-.658.207.14c1.46-1.741.576-3.87 1.384-5.804l.222.039c.098 2.4-.214 4.8-.924 7.105-.434 1.136-1.161 2.007-1.803 3.008-.111 0-.333-.058-.298-.27-.172.3-.247.73-.596.783-1.01-.716.434-1.794.293-2.902.182-2.936.864-6.123 0-8.905l.152-.193c1.277 1.05.707 2.936.666 4.47zM88 31.007c-.242.922-1.945.834-3 .993.356-.818 1.716-1.043 3-.993zM86.945 46.867c-.31.39-.537-.163-.682-.525-.166-.212-.118-.709-.263-1.042.464-.992.473.78.917.915.161.24.04.517.028.652zM117 64c-1.356-.263-2.693.263-4-.304.233-1.528 1.81 0 2.712-.422.16.823 1.104.07 1.288.726zM117 59.775l-.035.225c-.669-.141-1.221-1.084-1.727-1.57-1.191.104-2.236-.823-3.238-1.389 1.891-.309 3.843 1.163 5 2.734zM116.785 50.57c1.883.364 2.834 2.155 4.215 3.108-.646.908-1.345-.378-1.96-.505l-1.793-1.608c-1.704 1.165-1.677-1.7-3.099-1.746l-.148-.368c.565.338.188-.54.682-.444 1.103.111.928 2.598 2.103 1.564zM115.697 52.693c.662.195.754.917 1.303 1.099l-.036.195c-.605.11-.718-.51-1.4-.612-1.026-.248-1.538-1.032-2.564-1.183 1.056-.647 1.636.55 2.697.501zM123.915 57.465c.62-.122.785.97 1.33.696-.363 2.04 2.07 1.928 1.72 3.839-.376-.216-.829-1.385-1.565-1.169-.39-.882-.762-.304-1.418-.713-.585-.935-1.512-1.53-1.982-2.57.115-.907.771-.492 1.13-.147.196.73.413-.158.785.064zM124.785 61.684l1.215.27c-.675 1.258-2.516.775-3.81 1.046-.267-.035-.219-.256-.06-.345.558-.035.79-.454 1.257-.725-.608-.419.298-.744.723-.789.59-.365 1.057.035.675.543z" fill="#231F20"/></g></svg>